<?xml version="1.0" encoding="UTF-8"?>
<svg xmlns="http://www.w3.org/2000/svg" xmlns:xlink="http://www.w3.org/1999/xlink" width="150pt" height="149.999998pt" viewBox="0 0 150 149.999998" version="1.2">
<g id="surface1">
<path style=" stroke:none;fill-rule:nonzero;fill:rgb(0%,0%,0%);fill-opacity:1;" d="M 150 0 L 108.152344 6.320312 L 120.332031 18.503906 L 96.140625 42.695312 L 83.433594 30.792969 L 51.253906 63.773438 L 39.535156 52.054688 L 2.390625 88.445312 L 13.445312 99.71875 L 39.410156 74.261719 L 51.378906 86.226562 L 83.929688 52.886719 L 96.496094 64.667969 L 131.496094 29.667969 L 143.679688 41.847656 Z M 126.316406 63.15625 L 126.316406 150 L 142.105469 150 L 142.105469 63.15625 Z M 94.738281 78.949219 L 94.738281 150 L 110.527344 150 L 110.527344 78.949219 Z M 63.15625 94.738281 L 63.15625 150 L 78.949219 150 L 78.949219 94.738281 Z M 31.578125 110.527344 L 31.578125 150 L 47.367188 150 L 47.367188 110.527344 Z M 0 126.316406 L 0 150 L 15.789062 150 L 15.789062 126.316406 Z M 0 126.316406 "/>
</g>
</svg>
