<?xml version="1.0" encoding="UTF-8"?>
<svg xmlns="http://www.w3.org/2000/svg" xmlns:xlink="http://www.w3.org/1999/xlink" width="150pt" height="149.999998pt" viewBox="0 0 150 149.999998" version="1.2">
<defs>
<clipPath id="clip1">
  <path d="M 34 0 L 119.566406 0 L 119.566406 150 L 34 150 Z M 34 0 "/>
</clipPath>
</defs>
<g id="surface1">
<path style=" stroke:none;fill-rule:nonzero;fill:rgb(95.689392%,41.569519%,38.038635%);fill-opacity:1;" d="M 94.066406 95.230469 C 91.550781 92.78125 89.484375 94.144531 86.554688 92.792969 C 83.535156 91.402344 83.183594 89.496094 81.992188 93.480469 C 81.660156 94.597656 81.84375 95.820312 81.238281 96.878906 C 80.847656 97.558594 79.796875 97.046875 79.375 97.890625 C 78.46875 99.679688 80.039062 102.355469 76.921875 101.816406 L 80.09375 108.925781 C 83.695312 107.359375 87.292969 105.769531 90.84375 104.089844 C 95.371094 101.953125 99.429688 100.457031 94.066406 95.230469 Z M 72.695312 96.929688 C 72.398438 96.550781 65.601562 96.929688 67.148438 91.929688 C 67.496094 90.804688 75.023438 88.824219 75.816406 88.519531 C 80.457031 86.734375 85.773438 85.367188 90.125 82.933594 C 90.753906 82.578125 94.339844 81.722656 94.597656 80.933594 C 94.742188 80.480469 94.304688 76.515625 93.132812 76.902344 C 87.78125 78.671875 82.59375 81.277344 77.394531 83.441406 C 75.214844 84.34375 63.730469 86.976562 62.457031 88.554688 C 60.730469 90.691406 64.429688 96.613281 61.25 99.921875 C 59.734375 101.5 54.105469 103.773438 52.003906 103.925781 C 44.085938 104.496094 41.953125 93.8125 42.296875 87.058594 C 42.597656 81.144531 47.910156 74.519531 51.910156 71.484375 C 57.355469 67.351562 59.402344 69.695312 58.386719 62.722656 C 57.71875 58.164062 56.066406 52.878906 54.550781 48.53125 C 53.957031 46.832031 52.375 41.234375 50.792969 40.40625 C 45.726562 37.761719 47.234375 44.832031 48.261719 46.679688 C 43.710938 48.578125 33.523438 50.753906 30.371094 54.472656 C 27.417969 57.957031 30.398438 60.964844 31.101562 65.730469 C 32.453125 74.929688 30.835938 84.691406 31.191406 93.976562 C 31.570312 103.902344 37.46875 126.25 50.855469 126.519531 C 54.902344 126.597656 58.164062 122.433594 61.972656 121.480469 C 64.15625 120.9375 63.15625 124.457031 64.679688 124.167969 C 66.773438 123.773438 67.605469 120.398438 70.660156 120.269531 C 74.25 120.121094 81.636719 131.597656 82.960938 127.851562 C 83.835938 125.378906 78.859375 119.75 77.984375 117.121094 C 75.984375 111.109375 76.828125 102.257812 72.695312 96.929688 Z M 64.339844 85.933594 C 64.339844 85.933594 63.789062 85.09375 64.339844 84.75 C 64.894531 84.402344 65.621094 83.898438 65.886719 83.925781 C 66.15625 83.953125 66.492188 84.738281 66.492188 84.738281 C 66.492188 84.738281 67.15625 85.917969 64.339844 85.933594 "/>
<path style=" stroke:none;fill-rule:nonzero;fill:rgb(96.469116%,71.759033%,21.569824%);fill-opacity:1;" d="M 60.714844 108.925781 C 60.714844 121.253906 80.09375 121.253906 80.09375 108.925781 C 80.09375 96.472656 60.714844 96.667969 60.714844 108.925781 Z M 83.5 60.226562 L 77.347656 63.332031 C 77.347656 63.332031 79.851562 68.578125 80.359375 68.628906 C 80.585938 68.65625 80.835938 68.652344 81.066406 68.6875 C 82.007812 68.066406 83.8125 66.984375 85.910156 66.222656 C 85.933594 66.085938 85.984375 65.976562 86.070312 65.917969 C 86.390625 65.707031 83.5 60.226562 83.5 60.226562 Z M 77.589844 72.246094 C 76.484375 69.734375 74.085938 65.140625 74.085938 65.140625 L 69.285156 67.53125 C 69.285156 67.53125 71.796875 72.402344 73.121094 74.722656 C 75.113281 73.890625 76.785156 72.808594 77.589844 72.246094 Z M 61.707031 58.871094 C 61.707031 72.363281 40.585938 72.328125 40.585938 58.871094 C 40.585938 45.425781 61.707031 45.292969 61.707031 58.871094 "/>
<g clip-path="url(#clip1)" clip-rule="nonzero">
<path style=" stroke:none;fill-rule:nonzero;fill:rgb(58.81958%,81.17981%,56.079102%);fill-opacity:1;" d="M 46.046875 27.457031 C 46.492188 28.273438 47.3125 29.304688 47.515625 30.226562 C 47.617188 30.667969 47.179688 31.21875 47.277344 31.578125 C 47.433594 32.160156 47.960938 32.800781 48.148438 33.4375 C 48.390625 34.269531 48.828125 34.503906 48.886719 35.289062 C 48.917969 35.726562 48.121094 36.324219 48.191406 37.019531 C 48.289062 38.042969 49.816406 39.402344 50.488281 40.144531 L 61.277344 61.832031 C 61.785156 64.183594 60.804688 70.410156 63.984375 70.398438 C 66.414062 70.394531 70.347656 67.535156 72.480469 66.515625 C 75.386719 65.125 90.597656 59.921875 88.992188 55.957031 C 88.578125 54.941406 86.207031 52.882812 85.296875 52.257812 C 84.710938 51.855469 84.265625 51.652344 83.863281 51.429688 C 83.660156 51.316406 83.207031 51.925781 82.90625 51.765625 C 81.601562 51.066406 80.320312 47.753906 79.582031 46.554688 C 75.996094 40.707031 72.53125 34.785156 68.933594 28.945312 C 67.816406 27.128906 66.691406 26.4375 65.289062 25.113281 C 63.394531 23.320312 62.285156 23.023438 60.808594 20.535156 C 58.992188 17.46875 57.226562 14.367188 55.472656 11.261719 C 54.660156 9.824219 51.742188 6.300781 51.824219 4.589844 C 51.910156 2.789062 54.136719 3.195312 52.027344 0.964844 C 51.144531 0.03125 51.289062 0.00390625 50.285156 0 C 48.28125 -0.00390625 44.640625 2.765625 42.886719 3.652344 C 40.820312 4.695312 35.917969 6.191406 34.578125 8.144531 C 33.851562 9.195312 34.015625 8.9375 34.734375 10.4375 C 35.050781 11.097656 35.449219 11.847656 36.015625 12.316406 C 36.417969 12.640625 36.746094 11.863281 36.976562 12.0625 C 38.578125 13.441406 39.625 16.066406 40.699219 17.933594 C 42.511719 21.089844 44.304688 24.261719 46.046875 27.457031 Z M 116.113281 139.410156 C 113.824219 136.257812 112.605469 135.136719 109.007812 135.277344 C 105.425781 135.417969 101.808594 135.941406 98.226562 136.1875 C 95.074219 136.40625 89.824219 137.695312 86.714844 136.804688 C 83.382812 135.84375 81.523438 131.957031 80.308594 128.988281 C 78.921875 125.605469 77.390625 122.042969 73.605469 120.707031 C 70.414062 119.585938 65.285156 120.414062 64.386719 124.195312 C 63.277344 126.898438 62.246094 130.625 60.261719 132.808594 C 57.550781 135.78125 52.210938 136.523438 48.550781 138.015625 C 44.742188 139.566406 39.46875 142.375 38.359375 146.757812 C 37.605469 149.726562 37.859375 148.695312 39.476562 149.355469 C 43.023438 150.804688 50.261719 149.355469 54.050781 149.355469 C 61.683594 149.355469 69.316406 149.355469 76.953125 149.355469 C 90.128906 149.355469 103.390625 149.792969 116.5625 149.355469 C 116.980469 149.34375 118.988281 149.648438 119.34375 149.355469 C 121.191406 147.847656 117.035156 140.675781 116.113281 139.410156 Z M 68.894531 85.785156 C 68.933594 85.828125 68.96875 85.871094 69.003906 85.917969 C 66.824219 86.566406 64.765625 87.242188 63.527344 87.84375 C 63.414062 87.550781 63.34375 87.230469 63.355469 86.921875 C 63.394531 86.164062 64.113281 86.066406 64.671875 85.761719 C 65.347656 85.390625 65.992188 84.921875 66.714844 84.640625 C 66.957031 84.546875 67.246094 84.457031 67.503906 84.554688 C 67.566406 84.578125 67.625 84.609375 67.683594 84.648438 C 68.574219 83.953125 69.617188 83.371094 70.726562 83.132812 C 72.261719 82.808594 73.84375 82.75 75.386719 82.492188 C 76.820312 82.246094 78.25 81.878906 79.636719 81.433594 C 80.722656 81.082031 82.042969 80.679688 82.851562 79.828125 C 83.058594 79.613281 83.253906 79.378906 83.429688 79.136719 C 83.441406 79.117188 83.574219 78.875 83.601562 78.875 C 83.65625 78.875 83.703125 79.027344 83.703125 79.070312 C 83.738281 79.503906 83.148438 80.0625 82.878906 80.320312 C 82.089844 81.078125 81.078125 81.589844 80.050781 81.949219 C 78.425781 82.519531 76.671875 82.761719 75 83.164062 C 73.679688 83.484375 72.351562 83.816406 71.070312 84.261719 C 70.203125 84.566406 69.40625 84.988281 68.894531 85.785156 "/>
</g>
<path style=" stroke:none;fill-rule:nonzero;fill:rgb(18.03894%,18.03894%,18.818665%);fill-opacity:1;" d="M 73.710938 120.402344 C 70.578125 119.054688 66.328125 120.03125 64.515625 123.035156 C 64.355469 123.304688 64.75 123.511719 64.925781 123.273438 C 67.140625 120.304688 71.710938 120.09375 74.609375 122 C 76.015625 122.921875 77.09375 124.234375 77.976562 125.640625 C 78.742188 126.855469 79.230469 128.257812 80.074219 129.40625 C 80.324219 129.746094 80.890625 129.558594 80.78125 129.109375 C 79.941406 125.667969 77.015625 121.828125 73.710938 120.402344 Z M 48.289062 6.792969 C 49.324219 6.257812 50.542969 5.816406 51.277344 4.898438 C 51.375 4.777344 51.328125 4.542969 51.132812 4.558594 C 50.085938 4.632812 49.289062 5.183594 48.363281 5.667969 C 47.148438 6.308594 45.945312 6.972656 44.738281 7.625 C 42.566406 8.804688 39.980469 9.789062 38.132812 11.441406 C 38.03125 11.53125 38.136719 11.683594 38.257812 11.65625 C 40.59375 11.09375 42.773438 9.59375 44.894531 8.515625 C 46.027344 7.9375 47.164062 7.375 48.289062 6.792969 Z M 48.453125 30.015625 C 50.691406 29.761719 53.042969 28.566406 55.09375 27.664062 C 56.246094 27.15625 57.394531 26.640625 58.53125 26.097656 C 59.671875 25.554688 60.996094 25.117188 61.796875 24.113281 C 61.914062 23.96875 61.851562 23.714844 61.632812 23.71875 C 60.566406 23.746094 59.75 24.246094 58.796875 24.699219 C 57.570312 25.285156 56.332031 25.863281 55.101562 26.441406 C 52.921875 27.453125 50.269531 28.363281 48.386719 29.851562 C 48.320312 29.902344 48.371094 30.027344 48.453125 30.015625 Z M 49.964844 33.949219 C 49.820312 34.078125 49.976562 34.285156 50.140625 34.25 C 52.785156 33.699219 55.40625 31.964844 57.820312 30.78125 C 60.25 29.585938 63.210938 28.605469 65.324219 26.914062 C 65.640625 26.660156 65.296875 26.183594 64.949219 26.269531 C 62.316406 26.933594 59.742188 28.71875 57.324219 29.9375 C 54.929688 31.144531 51.984375 32.1875 49.964844 33.949219 Z M 74.65625 61.289062 C 78.859375 59.261719 83.304688 57.429688 87.351562 55.117188 C 87.855469 54.828125 87.410156 54.152344 86.90625 54.367188 C 82.589844 56.183594 78.476562 58.578125 74.195312 60.503906 C 72.046875 61.464844 69.902344 62.429688 67.765625 63.410156 C 66.074219 64.1875 64.050781 64.808594 62.683594 66.109375 C 62.5625 66.226562 62.6875 66.441406 62.851562 66.390625 C 64.84375 65.800781 66.765625 64.753906 68.699219 63.972656 C 70.714844 63.15625 72.699219 62.234375 74.65625 61.289062 Z M 63.460938 62.058594 C 65.070312 61.835938 66.59375 60.847656 68.042969 60.152344 C 69.707031 59.355469 71.375 58.5625 73.046875 57.777344 C 76.339844 56.230469 79.910156 54.875 82.957031 52.894531 C 83.132812 52.78125 83.027344 52.488281 82.8125 52.546875 C 79.375 53.507812 76.078125 55.304688 72.859375 56.824219 C 71.191406 57.609375 69.523438 58.40625 67.863281 59.207031 C 66.328125 59.945312 64.503906 60.554688 63.285156 61.757812 C 63.144531 61.898438 63.292969 62.082031 63.460938 62.058594 Z M 84.050781 61.386719 C 84.183594 61.273438 84.070312 61.070312 83.917969 61.0625 C 82.828125 61.023438 81.671875 61.648438 80.6875 62.078125 C 79.566406 62.566406 78.332031 63.070312 77.421875 63.894531 C 77.28125 64.023438 77.433594 64.242188 77.605469 64.203125 C 78.792969 63.925781 79.933594 63.273438 81.050781 62.796875 C 82.027344 62.378906 83.242188 62.09375 84.050781 61.386719 Z M 74.65625 65.585938 C 73.496094 65.507812 72.304688 66.167969 71.261719 66.613281 C 70.421875 66.96875 69.015625 67.296875 68.675781 68.210938 C 68.660156 68.253906 68.695312 68.304688 68.738281 68.316406 C 69.636719 68.585938 70.679688 67.773438 71.488281 67.417969 C 72.546875 66.949219 73.902344 66.636719 74.757812 65.832031 C 74.859375 65.738281 74.777344 65.59375 74.65625 65.585938 Z M 58.855469 65.941406 C 55.601562 67.53125 51.6875 69.238281 47.945312 68.269531 C 46.277344 67.839844 44.210938 66.804688 43.011719 65.554688 C 41.566406 64.042969 41.460938 62 40.917969 60.105469 C 40.839844 59.835938 40.4375 59.894531 40.429688 60.171875 C 40.296875 64.570312 43.148438 67.601562 47.199219 68.941406 C 49.105469 69.574219 51.320312 69.351562 53.273438 69.070312 C 55.367188 68.765625 57.8125 68.089844 59.25 66.449219 C 59.496094 66.167969 59.195312 65.777344 58.855469 65.941406 Z M 53.074219 61.128906 C 54.59375 61.746094 54.921875 58.691406 54.746094 57.832031 C 54.4375 56.292969 52.554688 54.691406 50.953125 55.355469 C 50.820312 55.410156 50.800781 55.59375 50.953125 55.644531 C 51.515625 55.816406 52.097656 55.785156 52.621094 56.097656 C 53.222656 56.457031 53.804688 57.046875 54.066406 57.683594 C 54.417969 58.527344 54.386719 59.5625 53.652344 60.195312 C 53.351562 60.449219 53.136719 60.460938 52.945312 60.8125 C 52.871094 60.945312 52.945312 61.074219 53.074219 61.128906 Z M 48.726562 56.371094 C 47.414062 57.28125 46.804688 58.996094 47.472656 60.5 C 48.023438 61.734375 49.886719 63.148438 51.230469 62.269531 C 51.402344 62.160156 51.417969 61.90625 51.230469 61.800781 C 50.199219 61.195312 49.011719 61.363281 48.347656 60.132812 C 47.722656 58.972656 48.386719 57.648438 48.96875 56.609375 C 49.046875 56.464844 48.878906 56.265625 48.726562 56.371094 Z M 75.988281 112.820312 C 75.953125 112.988281 76.109375 113.222656 76.3125 113.140625 C 78.234375 112.34375 78.019531 109.5 77.882812 107.796875 C 77.695312 105.445312 76.753906 103.3125 74.460938 102.304688 C 74.296875 102.234375 74.164062 102.40625 74.273438 102.546875 C 74.800781 103.222656 75.492188 103.730469 76.015625 104.414062 C 76.851562 105.5 77.050781 106.707031 77.09375 108.042969 C 77.121094 108.90625 77.066406 109.792969 76.8125 110.621094 C 76.582031 111.378906 76.136719 112.035156 75.988281 112.820312 Z M 65.78125 114.300781 C 67.972656 116.195312 73.011719 116.757812 74.808594 114.007812 C 74.902344 113.863281 74.777344 113.667969 74.613281 113.667969 C 73.453125 113.671875 72.410156 114.316406 71.269531 114.515625 C 69.59375 114.808594 67.832031 114.582031 66.472656 113.519531 C 63.847656 111.464844 63.5 107.691406 64.296875 104.695312 C 64.359375 104.460938 64.015625 104.300781 63.890625 104.527344 C 62.285156 107.507812 63.230469 112.097656 65.78125 114.300781 Z M 93.289062 95.042969 C 90.855469 95.628906 88.453125 96.851562 86.144531 97.8125 C 83.964844 98.722656 81.648438 99.484375 79.585938 100.632812 C 79.332031 100.777344 79.503906 101.160156 79.78125 101.09375 C 82.074219 100.535156 84.289062 99.46875 86.460938 98.558594 C 88.738281 97.601562 91.335938 96.640625 93.367188 95.230469 C 93.460938 95.167969 93.40625 95.015625 93.289062 95.042969 Z M 82.226562 96.519531 C 83.199219 96.300781 84.132812 95.816406 85.039062 95.414062 C 85.839844 95.054688 86.714844 94.808594 87.238281 94.078125 C 87.277344 94.023438 87.226562 93.957031 87.167969 93.953125 C 86.3125 93.898438 85.609375 94.363281 84.847656 94.703125 C 83.902344 95.121094 82.882812 95.453125 82.007812 96.003906 C 81.730469 96.175781 81.910156 96.589844 82.226562 96.519531 Z M 70.402344 107.695312 C 69.71875 107.695312 69.164062 108.246094 69.164062 108.925781 C 69.164062 109.605469 69.71875 110.15625 70.402344 110.15625 C 71.089844 110.15625 71.644531 109.605469 71.644531 108.925781 C 71.644531 108.246094 71.089844 107.695312 70.402344 107.695312 Z M 52.980469 58.871094 C 52.980469 57.863281 52.160156 57.046875 51.148438 57.046875 C 50.132812 57.046875 49.3125 57.863281 49.3125 58.871094 C 49.3125 59.875 50.132812 60.691406 51.148438 60.691406 C 52.160156 60.691406 52.980469 59.875 52.980469 58.871094 Z M 81.753906 69.082031 C 81.996094 69.5625 82.933594 69.375 84.058594 68.628906 C 85.183594 67.886719 85.933594 67.671875 85.933594 67.355469 C 85.933594 67.121094 85.839844 66.582031 85.910156 66.222656 C 83.8125 66.984375 82.007812 68.066406 81.066406 68.6875 C 81.359375 68.726562 81.621094 68.816406 81.753906 69.082031 Z M 78.136719 73.808594 C 78.175781 73.660156 77.953125 73.0625 77.589844 72.246094 C 76.785156 72.808594 75.113281 73.890625 73.121094 74.722656 C 73.53125 75.441406 73.832031 75.917969 73.902344 75.917969 C 74.195312 75.917969 77.976562 74.410156 78.136719 73.808594 Z M 73.5 127.089844 C 73.5 128.410156 72.226562 129.484375 70.660156 129.484375 C 69.089844 129.484375 67.816406 128.410156 67.816406 127.089844 C 67.816406 125.765625 69.089844 124.695312 70.660156 124.695312 C 72.226562 124.695312 73.5 125.765625 73.5 127.089844 "/>
<path style=" stroke:none;fill-rule:nonzero;fill:rgb(100%,100%,100%);fill-opacity:1;" d="M 117.109375 146.777344 C 116.273438 144.078125 114.859375 140.875 112.945312 138.746094 C 111.691406 137.355469 109.019531 136.3125 107.472656 137.800781 C 107.382812 137.886719 107.414062 138.082031 107.550781 138.101562 C 108.46875 138.238281 109.425781 138.132812 110.316406 138.425781 C 111.601562 138.851562 112.324219 139.925781 112.980469 141.023438 C 114.179688 143.019531 115.042969 145.128906 115.976562 147.25 C 116.261719 147.894531 117.3125 147.4375 117.109375 146.777344 Z M 80.710938 64.507812 C 80.53125 64.210938 79.972656 64.308594 80.007812 64.695312 C 80.050781 65.160156 80.207031 65.59375 80.351562 66.039062 C 80.488281 66.457031 80.546875 66.761719 80.988281 66.933594 C 81.085938 66.96875 81.199219 66.90625 81.25 66.824219 C 81.5 66.441406 81.332031 66.125 81.203125 65.726562 C 81.0625 65.3125 80.9375 64.882812 80.710938 64.507812 Z M 71.8125 69.066406 C 71.703125 69.042969 71.605469 69.085938 71.542969 69.175781 C 71.15625 69.742188 71.71875 70.613281 71.957031 71.167969 C 72.261719 71.878906 72.503906 72.824219 73.195312 73.253906 C 73.421875 73.398438 73.660156 73.203125 73.683594 72.976562 C 73.765625 72.226562 73.203125 71.4375 72.914062 70.765625 C 72.671875 70.21875 72.472656 69.222656 71.8125 69.066406 Z M 93.398438 80.191406 C 93.40625 79.894531 93.304688 79.59375 93.230469 79.304688 C 93.160156 79.023438 93.113281 78.734375 92.996094 78.464844 C 92.867188 78.175781 92.375 78.257812 92.3125 78.554688 C 92.203125 79.089844 92.285156 79.941406 92.5625 80.417969 C 92.789062 80.808594 93.386719 80.628906 93.398438 80.191406 Z M 93.628906 96.789062 C 93.460938 96.796875 93.390625 96.820312 93.273438 96.933594 C 93.15625 97.050781 93.085938 97.253906 93.144531 97.417969 C 93.550781 98.542969 93.960938 99.558594 93.066406 100.554688 C 92.738281 100.921875 93.148438 101.457031 93.59375 101.230469 C 95.164062 100.433594 94.699219 98.269531 94.058594 97.035156 C 93.984375 96.886719 93.792969 96.777344 93.628906 96.789062 Z M 66.148438 102.707031 C 65.835938 102.941406 65.996094 103.488281 66.429688 103.371094 C 67.222656 103.160156 67.96875 102.878906 68.796875 102.832031 C 69.46875 102.796875 70.191406 102.984375 70.839844 102.789062 C 71.050781 102.730469 71.152344 102.4375 70.976562 102.277344 C 69.824219 101.25 67.25 101.863281 66.148438 102.707031 Z M 42.507812 57.859375 C 42.589844 58.117188 42.996094 58.148438 43.0625 57.859375 C 43.476562 56.097656 43.679688 54.632812 45.136719 53.339844 C 45.792969 52.753906 46.539062 52.308594 47.347656 51.96875 C 48.027344 51.679688 48.753906 51.546875 49.375 51.148438 C 49.636719 50.980469 49.507812 50.636719 49.226562 50.605469 C 46.015625 50.210938 41.457031 54.582031 42.507812 57.859375 Z M 64.328125 67.445312 C 64.023438 66.972656 63.320312 67.28125 63.433594 67.820312 C 63.503906 68.171875 63.648438 68.511719 63.804688 68.835938 C 63.949219 69.140625 64.148438 69.503906 64.472656 69.640625 C 64.789062 69.777344 65.113281 69.617188 65.140625 69.261719 C 65.167969 68.921875 64.972656 68.609375 64.816406 68.320312 C 64.660156 68.027344 64.507812 67.726562 64.328125 67.445312 Z M 50.09375 32.910156 C 50.453125 33.027344 50.683594 32.675781 50.640625 32.371094 C 50.597656 32.070312 50.378906 31.847656 50.230469 31.597656 C 50.082031 31.351562 49.984375 31.078125 49.835938 30.835938 C 49.609375 30.464844 48.953125 30.597656 48.980469 31.0625 C 49.011719 31.707031 49.433594 32.695312 50.09375 32.910156 Z M 36.792969 10.84375 C 37.230469 11.230469 37.785156 10.753906 37.566406 10.253906 C 37.394531 9.867188 37.109375 9.511719 36.910156 9.136719 C 36.734375 8.796875 36.613281 8.359375 36.308594 8.117188 C 36.1875 8.019531 35.960938 7.996094 35.886719 8.167969 C 35.695312 8.605469 35.847656 9.085938 36.003906 9.515625 C 36.171875 9.972656 36.421875 10.519531 36.792969 10.84375 Z M 44.601562 21.09375 C 45.574219 22.957031 46.410156 25.519531 48.128906 26.8125 C 48.285156 26.925781 48.519531 26.773438 48.511719 26.59375 C 48.417969 24.523438 46.839844 22.496094 45.878906 20.714844 C 44.691406 18.519531 43.59375 16.214844 42.164062 14.160156 C 41.898438 13.78125 41.160156 14.003906 41.351562 14.5 C 42.226562 16.78125 43.476562 18.929688 44.601562 21.09375 Z M 61.570312 57.5625 C 61.683594 57.726562 62.015625 57.695312 61.992188 57.449219 C 61.671875 54.449219 60.136719 51.539062 58.921875 48.800781 C 57.558594 45.71875 56.226562 42.484375 54.339844 39.671875 C 54.164062 39.410156 53.691406 39.566406 53.804688 39.898438 C 54.84375 43.007812 56.382812 45.972656 57.660156 48.992188 C 58.855469 51.816406 59.765625 55.054688 61.570312 57.5625 Z M 63.277344 132.195312 C 62.261719 132.902344 61.675781 134.128906 60.769531 134.976562 C 59.785156 135.898438 58.460938 136.566406 57.605469 137.605469 C 57.359375 137.902344 57.578125 138.429688 58.011719 138.296875 C 59.347656 137.890625 60.640625 136.789062 61.664062 135.863281 C 62.589844 135.027344 63.875 133.824219 63.765625 132.472656 C 63.746094 132.253906 63.496094 132.042969 63.277344 132.195312 Z M 52.863281 122.769531 C 51.449219 122.625 50.085938 122.910156 48.667969 122.652344 C 47.449219 122.429688 46.292969 121.972656 45.238281 121.335938 C 43.097656 120.042969 41.4375 118.058594 40.160156 115.949219 C 37.5 111.554688 36.507812 106.5625 34.976562 101.734375 C 34.878906 101.425781 34.328125 101.460938 34.375 101.8125 C 35.140625 107.554688 36.683594 113.640625 40.191406 118.382812 C 41.710938 120.433594 43.636719 122.207031 46.015625 123.222656 C 48.070312 124.097656 51.164062 124.730469 53.019531 123.144531 C 53.183594 123.007812 53.035156 122.789062 52.863281 122.769531 Z M 32.832031 55.863281 C 31.3125 57.25 32.609375 59.753906 32.195312 61.558594 C 32.160156 61.71875 31.910156 61.800781 31.800781 61.660156 C 30.679688 60.261719 30.105469 57.085938 31.21875 55.53125 C 32.546875 53.683594 35.890625 52.394531 38.101562 52.382812 C 38.417969 52.378906 38.546875 52.824219 38.265625 52.984375 C 36.5 53.957031 34.347656 54.480469 32.832031 55.863281 "/>
</g>
</svg>
