<?xml version="1.0" encoding="UTF-8"?>
<svg xmlns="http://www.w3.org/2000/svg" xmlns:xlink="http://www.w3.org/1999/xlink" width="150pt" height="149.999998pt" viewBox="0 0 150 149.999998" version="1.2">
<g id="surface1">
<path style=" stroke:none;fill-rule:nonzero;fill:rgb(59.999084%,66.668701%,70.979309%);fill-opacity:1;" d="M 137.5 150 L 16.667969 150 C 33.332031 150 29.167969 112.5 29.167969 112.5 C 29.167969 103.296875 36.628906 50 45.832031 50 L 133.332031 50 C 133.332031 50 150 50 150 66.667969 L 150 137.5 C 150 137.5 150 150 137.5 150 Z M 137.5 150 "/>
<path style=" stroke:none;fill-rule:nonzero;fill:rgb(79.998779%,83.918762%,86.669922%);fill-opacity:1;" d="M 125 137.5 C 125 150 137.5 150 137.5 150 L 12.5 150 C 12.5 150 0 150 0 133.332031 L 0 16.667969 C 0 7.460938 7.460938 0 16.667969 0 L 108.332031 0 C 117.539062 0 125 7.460938 125 16.667969 Z M 125 137.5 "/>
<path style=" stroke:none;fill-rule:nonzero;fill:rgb(59.999084%,66.668701%,70.979309%);fill-opacity:1;" d="M 112.5 83.332031 C 112.5 85.636719 110.636719 87.5 108.332031 87.5 L 75 87.5 C 72.699219 87.5 70.832031 85.636719 70.832031 83.332031 C 70.832031 81.027344 72.699219 79.167969 75 79.167969 L 108.332031 79.167969 C 110.636719 79.167969 112.5 81.027344 112.5 83.332031 Z M 112.5 66.667969 C 112.5 68.972656 110.636719 70.832031 108.332031 70.832031 L 75 70.832031 C 72.699219 70.832031 70.832031 68.972656 70.832031 66.667969 C 70.832031 64.363281 72.699219 62.5 75 62.5 L 108.332031 62.5 C 110.636719 62.5 112.5 64.363281 112.5 66.667969 Z M 112.5 50 C 112.5 52.304688 110.636719 54.167969 108.332031 54.167969 L 75 54.167969 C 72.699219 54.167969 70.832031 52.304688 70.832031 50 C 70.832031 47.695312 72.699219 45.832031 75 45.832031 L 108.332031 45.832031 C 110.636719 45.832031 112.5 47.695312 112.5 50 Z M 112.5 100 C 112.5 102.304688 110.636719 104.167969 108.332031 104.167969 L 16.667969 104.167969 C 14.367188 104.167969 12.5 102.304688 12.5 100 C 12.5 97.695312 14.367188 95.832031 16.667969 95.832031 L 108.332031 95.832031 C 110.636719 95.832031 112.5 97.695312 112.5 100 Z M 112.5 116.667969 C 112.5 118.972656 110.636719 120.832031 108.332031 120.832031 L 16.667969 120.832031 C 14.367188 120.832031 12.5 118.972656 12.5 116.667969 C 12.5 114.363281 14.367188 112.5 16.667969 112.5 L 108.332031 112.5 C 110.636719 112.5 112.5 114.363281 112.5 116.667969 Z M 112.5 133.332031 C 112.5 135.636719 110.636719 137.5 108.332031 137.5 L 16.667969 137.5 C 14.367188 137.5 12.5 135.636719 12.5 133.332031 C 12.5 131.027344 14.367188 129.167969 16.667969 129.167969 L 108.332031 129.167969 C 110.636719 129.167969 112.5 131.027344 112.5 133.332031 Z M 104.167969 37.5 C 104.167969 37.5 112.5 37.5 112.5 29.167969 L 112.5 20.832031 C 112.5 20.832031 112.5 12.5 104.167969 12.5 L 20.832031 12.5 C 20.832031 12.5 12.5 12.5 12.5 20.832031 L 12.5 29.167969 C 12.5 29.167969 12.5 37.5 20.832031 37.5 Z M 104.167969 37.5 "/>
<path style=" stroke:none;fill-rule:nonzero;fill:rgb(33.329773%,67.449951%,93.328857%);fill-opacity:1;" d="M 54.167969 87.5 C 54.167969 87.5 62.5 87.5 62.5 79.167969 L 62.5 54.167969 C 62.5 54.167969 62.5 45.832031 54.167969 45.832031 L 20.832031 45.832031 C 20.832031 45.832031 12.5 45.832031 12.5 54.167969 L 12.5 79.167969 C 12.5 79.167969 12.5 87.5 20.832031 87.5 Z M 54.167969 87.5 "/>
</g>
</svg>
