<?xml version="1.0" encoding="UTF-8"?>
<svg xmlns="http://www.w3.org/2000/svg" xmlns:xlink="http://www.w3.org/1999/xlink" width="150pt" height="149.999998pt" viewBox="0 0 150 149.999998" version="1.2">
<g id="surface1">
<path style=" stroke:none;fill-rule:nonzero;fill:rgb(31.759644%,38.038635%,66.268921%);fill-opacity:1;" d="M 120.09375 145.035156 C 115.410156 149.722656 36.105469 149.996094 30.871094 145.035156 C 25.640625 140.070312 25.089844 23.175781 30.871094 18.210938 C 36.65625 13.25 115.6875 12.699219 120.09375 18.210938 C 124.5 23.726562 124.773438 140.347656 120.09375 145.035156 Z M 120.09375 145.035156 "/>
<path style=" stroke:none;fill-rule:nonzero;fill:rgb(39.99939%,43.528748%,70.199585%);fill-opacity:1;" d="M 82.539062 140.816406 C 61.898438 141.144531 38.59375 140.144531 35.992188 137.675781 C 31.367188 133.289062 30.878906 29.921875 35.992188 25.535156 C 41.109375 21.144531 110.992188 20.660156 114.886719 25.535156 C 117.863281 29.257812 118.707031 90.285156 117.097656 120.765625 C 115.316406 124.691406 85.828125 140.625 82.539062 140.816406 Z M 82.539062 140.816406 "/>
<path style=" stroke:none;fill-rule:nonzero;fill:rgb(47.839355%,47.059631%,72.158813%);fill-opacity:1;" d="M 82.539062 140.816406 C 80.480469 137.867188 95.761719 110.570312 98.242188 109.191406 C 100.71875 107.8125 116.140625 116.5 117.097656 120.765625 C 115.316406 124.691406 85.828125 140.625 82.539062 140.816406 Z M 82.539062 140.816406 "/>
<path style=" stroke:none;fill-rule:nonzero;fill:rgb(25.489807%,34.118652%,60.389709%);fill-opacity:1;" d="M 75.121094 -0.015625 C 70.132812 -0.015625 66.09375 4.027344 66.09375 9.023438 C 66.09375 14.011719 70.132812 18.058594 75.121094 18.058594 C 80.105469 18.058594 84.148438 14.011719 84.148438 9.023438 C 84.148438 4.027344 80.105469 -0.015625 75.121094 -0.015625 Z M 75.121094 13.023438 C 72.910156 13.023438 71.121094 11.234375 71.121094 9.023438 C 71.121094 6.808594 72.910156 5.019531 75.121094 5.019531 C 77.328125 5.019531 79.117188 6.808594 79.117188 9.023438 C 79.117188 11.234375 77.328125 13.023438 75.121094 13.023438 Z M 75.121094 13.023438 "/>
<path style=" stroke:none;fill-rule:nonzero;fill:rgb(25.489807%,34.118652%,60.389709%);fill-opacity:1;" d="M 89.707031 25.097656 C 88.140625 27.46875 62.582031 27.09375 60.734375 25.097656 C 58.886719 23.09375 58.648438 12.054688 60.734375 10.632812 C 62.824219 9.210938 87.882812 8.738281 89.707031 10.632812 C 91.535156 12.53125 91.273438 22.726562 89.707031 25.097656 Z M 89.707031 25.097656 "/>
<path style=" stroke:none;fill-rule:nonzero;fill:rgb(31.759644%,38.038635%,66.268921%);fill-opacity:1;" d="M 69.234375 17.679688 C 69.234375 19.488281 67.773438 20.953125 65.964844 20.953125 C 64.160156 20.953125 62.699219 19.488281 62.699219 17.679688 C 62.699219 15.875 64.160156 14.40625 65.964844 14.40625 C 67.773438 14.40625 69.234375 15.875 69.234375 17.679688 Z M 69.234375 17.679688 "/>
<path style=" stroke:none;fill-rule:nonzero;fill:rgb(31.759644%,38.038635%,66.268921%);fill-opacity:1;" d="M 86.675781 17.679688 C 86.675781 18.113281 86.59375 18.53125 86.425781 18.933594 C 86.261719 19.332031 86.023438 19.6875 85.71875 19.996094 C 85.414062 20.300781 85.058594 20.539062 84.660156 20.703125 C 84.257812 20.871094 83.839844 20.953125 83.40625 20.953125 C 82.972656 20.953125 82.558594 20.871094 82.15625 20.703125 C 81.757812 20.539062 81.402344 20.300781 81.097656 19.996094 C 80.789062 19.6875 80.554688 19.332031 80.386719 18.933594 C 80.222656 18.53125 80.136719 18.113281 80.136719 17.679688 C 80.136719 17.246094 80.222656 16.828125 80.386719 16.425781 C 80.554688 16.027344 80.789062 15.671875 81.097656 15.367188 C 81.402344 15.058594 81.757812 14.824219 82.15625 14.65625 C 82.558594 14.492188 82.972656 14.40625 83.40625 14.40625 C 83.839844 14.40625 84.257812 14.492188 84.660156 14.65625 C 85.058594 14.824219 85.414062 15.058594 85.71875 15.367188 C 86.023438 15.671875 86.261719 16.027344 86.425781 16.425781 C 86.59375 16.828125 86.675781 17.246094 86.675781 17.679688 Z M 86.675781 17.679688 "/>
<path style=" stroke:none;fill-rule:nonzero;fill:rgb(14.118958%,19.60907%,39.608765%);fill-opacity:1;" d="M 74.058594 26.179688 C 63.628906 26.179688 60.757812 25.628906 60.117188 24.777344 C 59.21875 23.574219 58.566406 22.265625 58.0625 20.664062 C 57.203125 17.921875 57.273438 12.851562 59.644531 10.453125 C 59.96875 10.125 60.5 10.121094 60.828125 10.445312 C 61.15625 10.773438 61.160156 11.304688 60.835938 11.632812 C 59.050781 13.4375 58.949219 17.886719 59.664062 20.160156 C 60.101562 21.550781 60.660156 22.683594 61.421875 23.714844 C 62.308594 24.257812 67.527344 24.789062 87.101562 24.308594 C 88.457031 24.277344 89.355469 24.253906 89.710938 24.257812 C 90.171875 24.257812 90.546875 24.636719 90.542969 25.097656 C 90.542969 25.5625 90.167969 25.933594 89.707031 25.933594 C 89.691406 25.933594 89.683594 25.933594 89.667969 25.933594 C 89.308594 25.933594 88.394531 25.957031 87.144531 25.988281 C 81.820312 26.117188 77.523438 26.179688 74.058594 26.179688 Z M 74.058594 26.179688 "/>
<path style=" stroke:none;fill-rule:nonzero;fill:rgb(14.118958%,19.60907%,39.608765%);fill-opacity:1;" d="M 65.527344 20.996094 C 64.761719 20.996094 64 20.808594 63.425781 20.511719 C 62.410156 19.984375 61.765625 18.90625 61.699219 17.621094 C 61.628906 16.261719 62.210938 15.003906 63.21875 14.339844 C 63.605469 14.085938 64.125 14.191406 64.378906 14.582031 C 64.636719 14.96875 64.527344 15.488281 64.140625 15.742188 C 63.636719 16.074219 63.335938 16.777344 63.375 17.535156 C 63.410156 18.214844 63.71875 18.773438 64.195312 19.023438 C 64.925781 19.398438 66.058594 19.417969 66.570312 19.058594 C 66.734375 18.945312 66.894531 18.769531 66.839844 18.308594 C 66.785156 17.851562 67.117188 17.433594 67.574219 17.378906 C 68.03125 17.320312 68.453125 17.652344 68.503906 18.113281 C 68.621094 19.09375 68.273438 19.921875 67.527344 20.441406 C 66.957031 20.832031 66.242188 20.996094 65.527344 20.996094 Z M 65.527344 20.996094 "/>
<path style=" stroke:none;fill-rule:nonzero;fill:rgb(14.118958%,19.60907%,39.608765%);fill-opacity:1;" d="M 82.902344 20.75 C 81.800781 20.75 80.710938 20.332031 80.023438 19.574219 C 79.082031 18.527344 79.027344 17.03125 79.878906 15.464844 C 80.101562 15.058594 80.613281 14.910156 81.015625 15.128906 C 81.421875 15.351562 81.574219 15.863281 81.351562 16.269531 C 81 16.914062 80.699219 17.820312 81.265625 18.445312 C 81.808594 19.046875 82.996094 19.25 83.855469 18.886719 C 84.484375 18.617188 84.78125 18.132812 84.738281 17.4375 C 84.707031 16.976562 85.058594 16.578125 85.519531 16.546875 C 85.988281 16.515625 86.378906 16.871094 86.410156 17.332031 C 86.5 18.730469 85.785156 19.890625 84.507812 20.429688 C 84 20.644531 83.449219 20.75 82.902344 20.75 Z M 82.902344 20.75 "/>
<path style=" stroke:none;fill-rule:nonzero;fill:rgb(22.349548%,34.118652%,60.389709%);fill-opacity:1;" d="M 29.371094 47.601562 C 29.507812 47.628906 29.640625 47.660156 29.773438 47.691406 C 30.519531 47.859375 31.277344 47.34375 31.277344 46.546875 C 31.277344 45.746094 30.519531 45.230469 29.773438 45.402344 C 29.640625 45.429688 29.507812 45.460938 29.371094 45.492188 C 28.328125 45.726562 28.328125 47.359375 29.371094 47.601562 Z M 29.371094 47.601562 "/>
<path style=" stroke:none;fill-rule:nonzero;fill:rgb(22.349548%,34.118652%,60.389709%);fill-opacity:1;" d="M 27.902344 36.714844 C 27.890625 36.714844 27.878906 36.722656 27.863281 36.722656 C 27.832031 37.210938 27.800781 37.707031 27.769531 38.214844 C 27.8125 38.21875 27.851562 38.238281 27.902344 38.238281 C 28.886719 38.238281 28.886719 36.714844 27.902344 36.714844 Z M 27.902344 36.714844 "/>
<path style=" stroke:none;fill-rule:nonzero;fill:rgb(22.349548%,34.118652%,60.389709%);fill-opacity:1;" d="M 45.988281 34.648438 C 48.386719 34.648438 48.386719 30.925781 45.988281 30.925781 C 43.589844 30.925781 43.589844 34.648438 45.988281 34.648438 Z M 45.988281 34.648438 "/>
<path style=" stroke:none;fill-rule:nonzero;fill:rgb(22.349548%,34.118652%,60.389709%);fill-opacity:1;" d="M 35.710938 38.066406 C 36.464844 38.066406 36.464844 36.890625 35.710938 36.890625 C 34.957031 36.890625 34.957031 38.066406 35.710938 38.066406 Z M 35.710938 38.066406 "/>
<path style=" stroke:none;fill-rule:nonzero;fill:rgb(22.349548%,34.118652%,60.389709%);fill-opacity:1;" d="M 40.085938 32.164062 C 41.292969 32.164062 41.292969 30.285156 40.085938 30.285156 C 38.875 30.285156 38.875 32.164062 40.085938 32.164062 Z M 40.085938 32.164062 "/>
<path style=" stroke:none;fill-rule:nonzero;fill:rgb(22.349548%,34.118652%,60.389709%);fill-opacity:1;" d="M 34.148438 30.613281 C 35.375 30.613281 35.375 28.710938 34.148438 28.710938 C 32.921875 28.710938 32.921875 30.613281 34.148438 30.613281 Z M 34.148438 30.613281 "/>
<path style=" stroke:none;fill-rule:nonzero;fill:rgb(22.349548%,34.118652%,60.389709%);fill-opacity:1;" d="M 31.8125 33.039062 C 31.097656 33.039062 31.097656 34.152344 31.8125 34.152344 C 32.53125 34.152344 32.53125 33.039062 31.8125 33.039062 Z M 31.8125 33.039062 "/>
<path style=" stroke:none;fill-rule:nonzero;fill:rgb(22.349548%,34.118652%,60.389709%);fill-opacity:1;" d="M 44.769531 38.039062 C 43.878906 38.039062 43.878906 39.417969 44.769531 39.417969 C 45.65625 39.417969 45.65625 38.039062 44.769531 38.039062 Z M 44.769531 38.039062 "/>
<path style=" stroke:none;fill-rule:nonzero;fill:rgb(22.349548%,34.118652%,60.389709%);fill-opacity:1;" d="M 40.707031 44.023438 C 39.875 44.023438 39.875 45.3125 40.707031 45.3125 C 41.539062 45.3125 41.539062 44.023438 40.707031 44.023438 Z M 40.707031 44.023438 "/>
<path style=" stroke:none;fill-rule:nonzero;fill:rgb(22.349548%,34.118652%,60.389709%);fill-opacity:1;" d="M 35.070312 43.710938 C 35.992188 43.710938 35.992188 42.273438 35.070312 42.273438 C 34.148438 42.273438 34.148438 43.710938 35.070312 43.710938 Z M 35.070312 43.710938 "/>
<path style=" stroke:none;fill-rule:nonzero;fill:rgb(22.349548%,34.118652%,60.389709%);fill-opacity:1;" d="M 36.023438 47.246094 C 36.929688 47.246094 36.929688 45.839844 36.023438 45.839844 C 35.117188 45.839844 35.117188 47.246094 36.023438 47.246094 Z M 36.023438 47.246094 "/>
<path style=" stroke:none;fill-rule:nonzero;fill:rgb(22.349548%,34.118652%,60.389709%);fill-opacity:1;" d="M 28.671875 42.605469 C 29.238281 42.605469 29.238281 41.726562 28.671875 41.726562 C 28.105469 41.726562 28.105469 42.605469 28.671875 42.605469 Z M 28.671875 42.605469 "/>
<path style=" stroke:none;fill-rule:nonzero;fill:rgb(22.349548%,34.118652%,60.389709%);fill-opacity:1;" d="M 47.890625 42.355469 C 48.53125 42.355469 48.53125 41.359375 47.890625 41.359375 C 47.25 41.359375 47.25 42.355469 47.890625 42.355469 Z M 47.890625 42.355469 "/>
<path style=" stroke:none;fill-rule:nonzero;fill:rgb(22.349548%,34.118652%,60.389709%);fill-opacity:1;" d="M 53.199219 38.734375 C 54.011719 38.734375 54.011719 37.472656 53.199219 37.472656 C 52.386719 37.472656 52.386719 38.734375 53.199219 38.734375 Z M 53.199219 38.734375 "/>
<path style=" stroke:none;fill-rule:nonzero;fill:rgb(22.349548%,34.118652%,60.389709%);fill-opacity:1;" d="M 51.011719 33.964844 C 52.125 33.964844 52.125 32.234375 51.011719 32.234375 C 49.898438 32.234375 49.898438 33.964844 51.011719 33.964844 Z M 51.011719 33.964844 "/>
<path style=" stroke:none;fill-rule:nonzero;fill:rgb(22.349548%,34.118652%,60.389709%);fill-opacity:1;" d="M 49.453125 28.398438 C 50.640625 28.398438 50.640625 26.550781 49.453125 26.550781 C 48.261719 26.550781 48.261719 28.398438 49.453125 28.398438 Z M 49.453125 28.398438 "/>
<path style=" stroke:none;fill-rule:nonzero;fill:rgb(22.349548%,34.118652%,60.389709%);fill-opacity:1;" d="M 60.382812 33.757812 C 61.628906 33.757812 61.628906 31.820312 60.382812 31.820312 C 59.136719 31.820312 59.136719 33.757812 60.382812 33.757812 Z M 60.382812 33.757812 "/>
<path style=" stroke:none;fill-rule:nonzero;fill:rgb(22.349548%,34.118652%,60.389709%);fill-opacity:1;" d="M 57.933594 42.414062 C 57.960938 42.492188 57.988281 42.574219 58.015625 42.652344 C 58.292969 43.449219 59.347656 43.449219 59.625 42.652344 C 59.65625 42.574219 59.683594 42.492188 59.710938 42.414062 C 59.910156 41.839844 59.390625 41.246094 58.820312 41.246094 C 58.253906 41.246094 57.730469 41.839844 57.933594 42.414062 Z M 57.933594 42.414062 "/>
<path style=" stroke:none;fill-rule:nonzero;fill:rgb(22.349548%,34.118652%,60.389709%);fill-opacity:1;" d="M 56.632812 48.132812 C 57.066406 48.132812 57.066406 47.457031 56.632812 47.457031 C 56.199219 47.457031 56.199219 48.132812 56.632812 48.132812 Z M 56.632812 48.132812 "/>
<path style=" stroke:none;fill-rule:nonzero;fill:rgb(22.349548%,34.118652%,60.389709%);fill-opacity:1;" d="M 61.007812 39.34375 C 61.800781 39.34375 61.800781 38.113281 61.007812 38.113281 C 60.214844 38.113281 60.214844 39.34375 61.007812 39.34375 Z M 61.007812 39.34375 "/>
<path style=" stroke:none;fill-rule:nonzero;fill:rgb(22.349548%,34.118652%,60.389709%);fill-opacity:1;" d="M 53.199219 44.269531 C 54.292969 44.269531 54.292969 42.570312 53.199219 42.570312 C 52.101562 42.570312 52.101562 44.269531 53.199219 44.269531 Z M 53.199219 44.269531 "/>
<path style=" stroke:none;fill-rule:nonzero;fill:rgb(22.349548%,34.118652%,60.389709%);fill-opacity:1;" d="M 45.390625 47.179688 C 44.597656 47.179688 44.597656 48.410156 45.390625 48.410156 C 46.183594 48.410156 46.183594 47.179688 45.390625 47.179688 Z M 45.390625 47.179688 "/>
<path style=" stroke:none;fill-rule:nonzero;fill:rgb(22.349548%,34.118652%,60.389709%);fill-opacity:1;" d="M 28.210938 32.074219 C 28.1875 32.355469 28.164062 32.640625 28.140625 32.929688 C 28.453125 32.765625 28.476562 32.292969 28.210938 32.074219 Z M 28.210938 32.074219 "/>
<path style=" stroke:none;fill-rule:nonzero;fill:rgb(22.349548%,34.118652%,60.389709%);fill-opacity:1;" d="M 28.53125 28.695312 C 28.503906 28.9375 28.480469 29.183594 28.453125 29.4375 C 28.707031 29.28125 28.734375 28.894531 28.53125 28.695312 Z M 28.53125 28.695312 "/>
<path style=" stroke:none;fill-rule:nonzero;fill:rgb(22.349548%,34.118652%,60.389709%);fill-opacity:1;" d="M 61.882812 144.160156 C 59.484375 144.160156 59.484375 147.882812 61.882812 147.882812 C 64.28125 147.882812 64.28125 144.160156 61.882812 144.160156 Z M 61.882812 144.160156 "/>
<path style=" stroke:none;fill-rule:nonzero;fill:rgb(22.349548%,34.118652%,60.389709%);fill-opacity:1;" d="M 55.980469 143.519531 C 54.773438 143.519531 54.773438 145.394531 55.980469 145.394531 C 57.1875 145.398438 57.1875 143.519531 55.980469 143.519531 Z M 55.980469 143.519531 "/>
<path style=" stroke:none;fill-rule:nonzero;fill:rgb(22.349548%,34.118652%,60.389709%);fill-opacity:1;" d="M 50.046875 141.941406 C 48.816406 141.941406 48.816406 143.847656 50.046875 143.847656 C 51.273438 143.847656 51.273438 141.941406 50.046875 141.941406 Z M 50.046875 141.941406 "/>
<path style=" stroke:none;fill-rule:nonzero;fill:rgb(22.349548%,34.118652%,60.389709%);fill-opacity:1;" d="M 47.710938 146.273438 C 46.992188 146.273438 46.992188 147.386719 47.710938 147.386719 C 48.425781 147.386719 48.425781 146.273438 47.710938 146.273438 Z M 47.710938 146.273438 "/>
<path style=" stroke:none;fill-rule:nonzero;fill:rgb(22.349548%,34.118652%,60.389709%);fill-opacity:1;" d="M 66.910156 145.46875 C 65.796875 145.46875 65.796875 147.199219 66.910156 147.199219 C 68.023438 147.199219 68.023438 145.46875 66.910156 145.46875 Z M 66.910156 145.46875 "/>
<path style=" stroke:none;fill-rule:nonzero;fill:rgb(22.349548%,34.118652%,60.389709%);fill-opacity:1;" d="M 65.347656 139.785156 C 64.160156 139.785156 64.160156 141.632812 65.347656 141.632812 C 66.535156 141.632812 66.535156 139.785156 65.347656 139.785156 Z M 65.347656 139.785156 "/>
<path style=" stroke:none;fill-rule:nonzero;fill:rgb(22.349548%,34.118652%,60.389709%);fill-opacity:1;" d="M 76.277344 145.054688 C 75.03125 145.054688 75.03125 146.988281 76.277344 146.988281 C 77.523438 146.988281 77.523438 145.054688 76.277344 145.054688 Z M 76.277344 145.054688 "/>
<path style=" stroke:none;fill-rule:nonzero;fill:rgb(22.349548%,34.118652%,60.389709%);fill-opacity:1;" d="M 31.652344 144.507812 C 31.238281 144.507812 31.023438 144.808594 30.996094 145.132812 C 31.25 145.332031 31.617188 145.523438 32.105469 145.707031 C 32.488281 145.335938 32.34375 144.507812 31.652344 144.507812 Z M 31.652344 144.507812 "/>
<path style=" stroke:none;fill-rule:nonzero;fill:rgb(22.349548%,34.118652%,60.389709%);fill-opacity:1;" d="M 43.800781 145.199219 C 43.140625 145.199219 43.140625 146.222656 43.800781 146.222656 C 44.460938 146.222656 44.460938 145.199219 43.800781 145.199219 Z M 43.800781 145.199219 "/>
<path style=" stroke:none;fill-rule:nonzero;fill:rgb(22.349548%,34.118652%,60.389709%);fill-opacity:1;" d="M 44.113281 141.804688 C 43.507812 141.804688 43.507812 142.738281 44.113281 142.738281 C 44.71875 142.738281 44.71875 141.804688 44.113281 141.804688 Z M 44.113281 141.804688 "/>
<path style=" stroke:none;fill-rule:nonzero;fill:rgb(22.349548%,34.118652%,60.389709%);fill-opacity:1;" d="M 33.304688 107.425781 C 34.554688 107.425781 34.554688 105.488281 33.304688 105.488281 C 32.058594 105.488281 32.058594 107.425781 33.304688 107.425781 Z M 33.304688 107.425781 "/>
<path style=" stroke:none;fill-rule:nonzero;fill:rgb(22.349548%,34.118652%,60.389709%);fill-opacity:1;" d="M 32.550781 116.324219 C 32.578125 116.242188 32.605469 116.164062 32.636719 116.082031 C 32.835938 115.507812 32.3125 114.914062 31.746094 114.914062 C 31.175781 114.914062 30.652344 115.507812 30.855469 116.082031 C 30.882812 116.164062 30.910156 116.242188 30.941406 116.324219 C 31.21875 117.117188 32.273438 117.117188 32.550781 116.324219 Z M 32.550781 116.324219 "/>
<path style=" stroke:none;fill-rule:nonzero;fill:rgb(22.349548%,34.118652%,60.389709%);fill-opacity:1;" d="M 29.558594 121.128906 C 29.125 121.128906 29.125 121.800781 29.558594 121.800781 C 29.996094 121.800781 29.996094 121.128906 29.558594 121.128906 Z M 29.558594 121.128906 "/>
<path style=" stroke:none;fill-rule:nonzero;fill:rgb(22.349548%,34.118652%,60.389709%);fill-opacity:1;" d="M 33.929688 113.015625 C 34.722656 113.015625 34.722656 111.78125 33.929688 111.78125 C 33.140625 111.78125 33.140625 113.015625 33.929688 113.015625 Z M 33.929688 113.015625 "/>
<path style=" stroke:none;fill-rule:nonzero;fill:rgb(22.349548%,34.118652%,60.389709%);fill-opacity:1;" d="M 44.492188 118.582031 C 44.492188 117.78125 43.738281 117.265625 42.992188 117.433594 C 42.855469 117.464844 42.722656 117.496094 42.589844 117.527344 C 41.542969 117.761719 41.542969 119.394531 42.589844 119.632812 C 42.722656 119.664062 42.855469 119.695312 42.992188 119.726562 C 43.738281 119.894531 44.492188 119.378906 44.492188 118.582031 Z M 44.492188 118.582031 "/>
<path style=" stroke:none;fill-rule:nonzero;fill:rgb(22.349548%,34.118652%,60.389709%);fill-opacity:1;" d="M 37.15625 116.890625 C 38.515625 116.890625 38.515625 114.78125 37.15625 114.78125 C 35.796875 114.78125 35.796875 116.890625 37.15625 116.890625 Z M 37.15625 116.890625 "/>
<path style=" stroke:none;fill-rule:nonzero;fill:rgb(22.349548%,34.118652%,60.389709%);fill-opacity:1;" d="M 35.8125 110.910156 C 35.964844 110.910156 35.984375 110.726562 35.894531 110.652344 C 35.832031 110.703125 35.757812 110.742188 35.667969 110.761719 C 35.667969 110.835938 35.714844 110.910156 35.8125 110.910156 Z M 35.8125 110.910156 "/>
<path style=" stroke:none;fill-rule:nonzero;fill:rgb(22.349548%,34.118652%,60.389709%);fill-opacity:1;" d="M 41.121094 110.273438 C 42.101562 110.273438 42.101562 108.75 41.121094 108.75 C 40.140625 108.75 40.140625 110.273438 41.121094 110.273438 Z M 41.121094 110.273438 "/>
<path style=" stroke:none;fill-rule:nonzero;fill:rgb(22.349548%,34.118652%,60.389709%);fill-opacity:1;" d="M 59.203125 102.960938 C 56.804688 102.960938 56.804688 106.683594 59.203125 106.683594 C 61.601562 106.683594 61.601562 102.960938 59.203125 102.960938 Z M 59.203125 102.960938 "/>
<path style=" stroke:none;fill-rule:nonzero;fill:rgb(22.349548%,34.118652%,60.389709%);fill-opacity:1;" d="M 48.925781 110.101562 C 49.683594 110.101562 49.683594 108.925781 48.925781 108.925781 C 48.171875 108.925781 48.171875 110.101562 48.925781 110.101562 Z M 48.925781 110.101562 "/>
<path style=" stroke:none;fill-rule:nonzero;fill:rgb(22.349548%,34.118652%,60.389709%);fill-opacity:1;" d="M 53.300781 104.195312 C 54.507812 104.195312 54.507812 102.320312 53.300781 102.320312 C 52.09375 102.320312 52.09375 104.195312 53.300781 104.195312 Z M 53.300781 104.195312 "/>
<path style=" stroke:none;fill-rule:nonzero;fill:rgb(22.349548%,34.118652%,60.389709%);fill-opacity:1;" d="M 47.367188 102.648438 C 48.59375 102.648438 48.59375 100.742188 47.367188 100.742188 C 46.140625 100.742188 46.140625 102.648438 47.367188 102.648438 Z M 47.367188 102.648438 "/>
<path style=" stroke:none;fill-rule:nonzero;fill:rgb(22.349548%,34.118652%,60.389709%);fill-opacity:1;" d="M 45.03125 105.074219 C 44.3125 105.074219 44.3125 106.1875 45.03125 106.1875 C 45.746094 106.1875 45.746094 105.074219 45.03125 105.074219 Z M 45.03125 105.074219 "/>
<path style=" stroke:none;fill-rule:nonzero;fill:rgb(22.349548%,34.118652%,60.389709%);fill-opacity:1;" d="M 57.984375 110.074219 C 57.09375 110.074219 57.09375 111.453125 57.984375 111.453125 C 58.871094 111.453125 58.871094 110.074219 57.984375 110.074219 Z M 57.984375 110.074219 "/>
<path style=" stroke:none;fill-rule:nonzero;fill:rgb(22.349548%,34.118652%,60.389709%);fill-opacity:1;" d="M 53.925781 116.058594 C 53.09375 116.058594 53.09375 117.347656 53.925781 117.347656 C 54.753906 117.347656 54.753906 116.058594 53.925781 116.058594 Z M 53.925781 116.058594 "/>
<path style=" stroke:none;fill-rule:nonzero;fill:rgb(22.349548%,34.118652%,60.389709%);fill-opacity:1;" d="M 48.289062 114.308594 C 47.363281 114.308594 47.363281 115.746094 48.289062 115.746094 C 49.210938 115.746094 49.210938 114.308594 48.289062 114.308594 Z M 48.289062 114.308594 "/>
<path style=" stroke:none;fill-rule:nonzero;fill:rgb(22.349548%,34.118652%,60.389709%);fill-opacity:1;" d="M 49.238281 117.875 C 48.332031 117.875 48.332031 119.285156 49.238281 119.285156 C 50.144531 119.285156 50.144531 117.875 49.238281 117.875 Z M 49.238281 117.875 "/>
<path style=" stroke:none;fill-rule:nonzero;fill:rgb(22.349548%,34.118652%,60.389709%);fill-opacity:1;" d="M 41.886719 113.761719 C 41.320312 113.761719 41.320312 114.640625 41.886719 114.640625 C 42.453125 114.640625 42.453125 113.761719 41.886719 113.761719 Z M 41.886719 113.761719 "/>
<path style=" stroke:none;fill-rule:nonzero;fill:rgb(22.349548%,34.118652%,60.389709%);fill-opacity:1;" d="M 61.105469 114.386719 C 61.75 114.386719 61.75 113.390625 61.105469 113.390625 C 60.464844 113.390625 60.464844 114.386719 61.105469 114.386719 Z M 61.105469 114.386719 "/>
<path style=" stroke:none;fill-rule:nonzero;fill:rgb(22.349548%,34.118652%,60.389709%);fill-opacity:1;" d="M 66.414062 109.507812 C 65.605469 109.507812 65.605469 110.769531 66.414062 110.769531 C 67.226562 110.769531 67.226562 109.507812 66.414062 109.507812 Z M 66.414062 109.507812 "/>
<path style=" stroke:none;fill-rule:nonzero;fill:rgb(22.349548%,34.118652%,60.389709%);fill-opacity:1;" d="M 64.230469 106 C 65.34375 106 65.34375 104.269531 64.230469 104.269531 C 63.117188 104.269531 63.117188 106 64.230469 106 Z M 64.230469 106 "/>
<path style=" stroke:none;fill-rule:nonzero;fill:rgb(22.349548%,34.118652%,60.389709%);fill-opacity:1;" d="M 62.667969 98.582031 C 61.476562 98.582031 61.476562 100.429688 62.667969 100.429688 C 63.859375 100.429688 63.859375 98.582031 62.667969 98.582031 Z M 62.667969 98.582031 "/>
<path style=" stroke:none;fill-rule:nonzero;fill:rgb(22.349548%,34.118652%,60.389709%);fill-opacity:1;" d="M 73.597656 103.855469 C 72.351562 103.855469 72.351562 105.792969 73.597656 105.792969 C 74.84375 105.792969 74.84375 103.855469 73.597656 103.855469 Z M 73.597656 103.855469 "/>
<path style=" stroke:none;fill-rule:nonzero;fill:rgb(22.349548%,34.118652%,60.389709%);fill-opacity:1;" d="M 72.035156 113.277344 C 71.46875 113.277344 70.945312 113.875 71.148438 114.449219 C 71.175781 114.527344 71.203125 114.609375 71.230469 114.6875 C 71.511719 115.484375 72.566406 115.484375 72.839844 114.6875 C 72.871094 114.609375 72.894531 114.53125 72.925781 114.449219 C 73.125 113.875 72.605469 113.277344 72.035156 113.277344 Z M 72.035156 113.277344 "/>
<path style=" stroke:none;fill-rule:nonzero;fill:rgb(22.349548%,34.118652%,60.389709%);fill-opacity:1;" d="M 69.851562 119.492188 C 69.417969 119.492188 69.417969 120.167969 69.851562 120.167969 C 70.285156 120.167969 70.285156 119.492188 69.851562 119.492188 Z M 69.851562 119.492188 "/>
<path style=" stroke:none;fill-rule:nonzero;fill:rgb(22.349548%,34.118652%,60.389709%);fill-opacity:1;" d="M 74.222656 110.148438 C 73.429688 110.148438 73.429688 111.378906 74.222656 111.378906 C 75.015625 111.378906 75.015625 110.148438 74.222656 110.148438 Z M 74.222656 110.148438 "/>
<path style=" stroke:none;fill-rule:nonzero;fill:rgb(22.349548%,34.118652%,60.389709%);fill-opacity:1;" d="M 66.414062 116.304688 C 67.507812 116.304688 67.507812 114.601562 66.414062 114.601562 C 65.320312 114.601562 65.320312 116.304688 66.414062 116.304688 Z M 66.414062 116.304688 "/>
<path style=" stroke:none;fill-rule:nonzero;fill:rgb(22.349548%,34.118652%,60.389709%);fill-opacity:1;" d="M 58.609375 119.214844 C 57.816406 119.214844 57.816406 120.445312 58.609375 120.445312 C 59.402344 120.445312 59.402344 119.214844 58.609375 119.214844 Z M 58.609375 119.214844 "/>
<path style=" stroke:none;fill-rule:nonzero;fill:rgb(22.349548%,34.118652%,60.389709%);fill-opacity:1;" d="M 33.308594 118.648438 C 32.0625 118.648438 32.0625 120.585938 33.308594 120.585938 C 34.554688 120.585938 34.554688 118.648438 33.308594 118.648438 Z M 33.308594 118.648438 "/>
<path style=" stroke:none;fill-rule:nonzero;fill:rgb(22.349548%,34.118652%,60.389709%);fill-opacity:1;" d="M 29.234375 109.339844 C 28.027344 109.339844 28.027344 111.214844 29.234375 111.214844 C 30.441406 111.214844 30.441406 109.339844 29.234375 109.339844 Z M 29.234375 109.339844 "/>
<path style=" stroke:none;fill-rule:nonzero;fill:rgb(22.349548%,34.118652%,60.389709%);fill-opacity:1;" d="M 28.972656 104.6875 C 29.859375 104.6875 29.859375 103.308594 28.972656 103.308594 C 28.085938 103.308594 28.085938 104.6875 28.972656 104.6875 Z M 28.972656 104.6875 "/>
<path style=" stroke:none;fill-rule:nonzero;fill:rgb(22.349548%,34.118652%,60.389709%);fill-opacity:1;" d="M 35.5 109.476562 C 34.648438 109.476562 34.648438 110.796875 35.5 110.796875 C 35.5625 110.796875 35.613281 110.777344 35.667969 110.761719 C 35.757812 110.742188 35.832031 110.703125 35.894531 110.652344 C 36.304688 110.316406 36.179688 109.476562 35.5 109.476562 Z M 35.5 109.476562 "/>
<path style=" stroke:none;fill-rule:nonzero;fill:rgb(22.349548%,34.118652%,60.389709%);fill-opacity:1;" d="M 41.121094 105.023438 C 41.78125 105.023438 41.78125 104 41.121094 104 C 40.457031 104 40.457031 105.023438 41.121094 105.023438 Z M 41.121094 105.023438 "/>
<path style=" stroke:none;fill-rule:nonzero;fill:rgb(22.349548%,34.118652%,60.389709%);fill-opacity:1;" d="M 41.433594 100.601562 C 40.828125 100.601562 40.828125 101.542969 41.433594 101.542969 C 42.035156 101.542969 42.035156 100.601562 41.433594 100.601562 Z M 41.433594 100.601562 "/>
<path style=" stroke:none;fill-rule:nonzero;fill:rgb(22.349548%,34.118652%,60.389709%);fill-opacity:1;" d="M 41.390625 17.957031 C 42.277344 17.957031 42.277344 16.578125 41.390625 16.578125 C 40.503906 16.578125 40.503906 17.957031 41.390625 17.957031 Z M 41.390625 17.957031 "/>
<path style=" stroke:none;fill-rule:nonzero;fill:rgb(22.349548%,34.118652%,60.389709%);fill-opacity:1;" d="M 37.332031 23.855469 C 38.160156 23.855469 38.160156 22.566406 37.332031 22.566406 C 36.5 22.566406 36.5 23.855469 37.332031 23.855469 Z M 37.332031 23.855469 "/>
<path style=" stroke:none;fill-rule:nonzero;fill:rgb(22.349548%,34.118652%,60.389709%);fill-opacity:1;" d="M 31.695312 22.25 C 32.617188 22.25 32.617188 20.8125 31.695312 20.8125 C 30.769531 20.8125 30.769531 22.25 31.695312 22.25 Z M 31.695312 22.25 "/>
<path style=" stroke:none;fill-rule:nonzero;fill:rgb(22.349548%,34.118652%,60.389709%);fill-opacity:1;" d="M 32.648438 25.789062 C 33.554688 25.789062 33.554688 24.378906 32.648438 24.378906 C 31.742188 24.378906 31.742188 25.789062 32.648438 25.789062 Z M 32.648438 25.789062 "/>
<path style=" stroke:none;fill-rule:nonzero;fill:rgb(22.349548%,34.118652%,60.389709%);fill-opacity:1;" d="M 44.511719 20.894531 C 45.152344 20.894531 45.152344 19.898438 44.511719 19.898438 C 43.871094 19.898438 43.871094 20.894531 44.511719 20.894531 Z M 44.511719 20.894531 "/>
<path style=" stroke:none;fill-rule:nonzero;fill:rgb(22.349548%,34.118652%,60.389709%);fill-opacity:1;" d="M 49.824219 17.273438 C 50.636719 17.273438 50.636719 16.011719 49.824219 16.011719 C 49.007812 16.011719 49.007812 17.273438 49.824219 17.273438 Z M 49.824219 17.273438 "/>
<path style=" stroke:none;fill-rule:nonzero;fill:rgb(22.349548%,34.118652%,60.389709%);fill-opacity:1;" d="M 54.636719 21.195312 C 54.914062 21.988281 55.96875 21.988281 56.25 21.195312 C 56.277344 21.113281 56.304688 21.035156 56.332031 20.953125 C 56.535156 20.378906 56.011719 19.785156 55.445312 19.785156 C 54.875 19.785156 54.351562 20.378906 54.554688 20.953125 C 54.582031 21.035156 54.609375 21.113281 54.636719 21.195312 Z M 54.636719 21.195312 "/>
<path style=" stroke:none;fill-rule:nonzero;fill:rgb(22.349548%,34.118652%,60.389709%);fill-opacity:1;" d="M 53.257812 26.671875 C 53.691406 26.671875 53.691406 26 53.257812 26 C 52.824219 26 52.824219 26.671875 53.257812 26.671875 Z M 53.257812 26.671875 "/>
<path style=" stroke:none;fill-rule:nonzero;fill:rgb(22.349548%,34.118652%,60.389709%);fill-opacity:1;" d="M 57.628906 17.882812 C 58.421875 17.882812 58.421875 16.652344 57.628906 16.652344 C 56.835938 16.652344 56.835938 17.882812 57.628906 17.882812 Z M 57.628906 17.882812 "/>
<path style=" stroke:none;fill-rule:nonzero;fill:rgb(22.349548%,34.118652%,60.389709%);fill-opacity:1;" d="M 49.824219 22.808594 C 50.917969 22.808594 50.917969 21.109375 49.824219 21.109375 C 48.726562 21.109375 48.726562 22.808594 49.824219 22.808594 Z M 49.824219 22.808594 "/>
<path style=" stroke:none;fill-rule:nonzero;fill:rgb(22.349548%,34.118652%,60.389709%);fill-opacity:1;" d="M 42.015625 26.949219 C 42.808594 26.949219 42.808594 25.722656 42.015625 25.722656 C 41.222656 25.722656 41.222656 26.949219 42.015625 26.949219 Z M 42.015625 26.949219 "/>
<path style=" stroke:none;fill-rule:nonzero;fill:rgb(22.349548%,34.118652%,60.389709%);fill-opacity:1;" d="M 30.386719 69.539062 C 30.519531 69.570312 30.652344 69.597656 30.789062 69.628906 C 31.535156 69.796875 32.289062 69.28125 32.289062 68.480469 C 32.289062 67.6875 31.535156 67.167969 30.789062 67.339844 C 30.652344 67.371094 30.519531 67.398438 30.386719 67.429688 C 29.339844 67.667969 29.339844 69.300781 30.386719 69.539062 Z M 30.386719 69.539062 "/>
<path style=" stroke:none;fill-rule:nonzero;fill:rgb(22.349548%,34.118652%,60.389709%);fill-opacity:1;" d="M 28.917969 60.179688 C 29.898438 60.179688 29.898438 58.652344 28.917969 58.652344 C 27.933594 58.652344 27.933594 60.179688 28.917969 60.179688 Z M 28.917969 60.179688 "/>
<path style=" stroke:none;fill-rule:nonzero;fill:rgb(22.349548%,34.118652%,60.389709%);fill-opacity:1;" d="M 47 52.863281 C 44.601562 52.863281 44.601562 56.589844 47 56.589844 C 49.398438 56.589844 49.398438 52.863281 47 52.863281 Z M 47 52.863281 "/>
<path style=" stroke:none;fill-rule:nonzero;fill:rgb(22.349548%,34.118652%,60.389709%);fill-opacity:1;" d="M 36.722656 58.832031 C 35.96875 58.832031 35.96875 60.003906 36.722656 60.003906 C 37.480469 60.003906 37.480469 58.832031 36.722656 58.832031 Z M 36.722656 58.832031 "/>
<path style=" stroke:none;fill-rule:nonzero;fill:rgb(22.349548%,34.118652%,60.389709%);fill-opacity:1;" d="M 41.097656 52.226562 C 39.886719 52.226562 39.886719 54.101562 41.097656 54.101562 C 42.304688 54.101562 42.304688 52.226562 41.097656 52.226562 Z M 41.097656 52.226562 "/>
<path style=" stroke:none;fill-rule:nonzero;fill:rgb(22.349548%,34.118652%,60.389709%);fill-opacity:1;" d="M 35.164062 50.648438 C 33.9375 50.648438 33.9375 52.554688 35.164062 52.554688 C 36.390625 52.554688 36.390625 50.648438 35.164062 50.648438 Z M 35.164062 50.648438 "/>
<path style=" stroke:none;fill-rule:nonzero;fill:rgb(22.349548%,34.118652%,60.389709%);fill-opacity:1;" d="M 32.828125 54.976562 C 32.109375 54.976562 32.109375 56.089844 32.828125 56.089844 C 33.542969 56.089844 33.542969 54.976562 32.828125 54.976562 Z M 32.828125 54.976562 "/>
<path style=" stroke:none;fill-rule:nonzero;fill:rgb(22.349548%,34.118652%,60.389709%);fill-opacity:1;" d="M 45.78125 59.976562 C 44.894531 59.976562 44.894531 61.355469 45.78125 61.355469 C 46.667969 61.355469 46.667969 59.976562 45.78125 59.976562 Z M 45.78125 59.976562 "/>
<path style=" stroke:none;fill-rule:nonzero;fill:rgb(22.349548%,34.118652%,60.389709%);fill-opacity:1;" d="M 41.71875 65.960938 C 40.890625 65.960938 40.890625 67.253906 41.71875 67.253906 C 42.550781 67.253906 42.550781 65.960938 41.71875 65.960938 Z M 41.71875 65.960938 "/>
<path style=" stroke:none;fill-rule:nonzero;fill:rgb(22.349548%,34.118652%,60.389709%);fill-opacity:1;" d="M 36.085938 65.648438 C 37.007812 65.648438 37.007812 64.210938 36.085938 64.210938 C 35.160156 64.210938 35.160156 65.648438 36.085938 65.648438 Z M 36.085938 65.648438 "/>
<path style=" stroke:none;fill-rule:nonzero;fill:rgb(22.349548%,34.118652%,60.389709%);fill-opacity:1;" d="M 37.039062 69.1875 C 37.941406 69.1875 37.941406 67.78125 37.039062 67.78125 C 36.128906 67.78125 36.128906 69.1875 37.039062 69.1875 Z M 37.039062 69.1875 "/>
<path style=" stroke:none;fill-rule:nonzero;fill:rgb(22.349548%,34.118652%,60.389709%);fill-opacity:1;" d="M 29.683594 63.667969 C 29.117188 63.667969 29.117188 64.546875 29.683594 64.546875 C 30.25 64.546875 30.25 63.667969 29.683594 63.667969 Z M 29.683594 63.667969 "/>
<path style=" stroke:none;fill-rule:nonzero;fill:rgb(22.349548%,34.118652%,60.389709%);fill-opacity:1;" d="M 48.902344 63.296875 C 48.261719 63.296875 48.261719 64.292969 48.902344 64.292969 C 49.546875 64.292969 49.546875 63.296875 48.902344 63.296875 Z M 48.902344 63.296875 "/>
<path style=" stroke:none;fill-rule:nonzero;fill:rgb(22.349548%,34.118652%,60.389709%);fill-opacity:1;" d="M 54.210938 60.671875 C 55.023438 60.671875 55.023438 59.410156 54.210938 59.410156 C 53.402344 59.410156 53.402344 60.671875 54.210938 60.671875 Z M 54.210938 60.671875 "/>
<path style=" stroke:none;fill-rule:nonzero;fill:rgb(22.349548%,34.118652%,60.389709%);fill-opacity:1;" d="M 52.027344 55.902344 C 53.140625 55.902344 53.140625 54.175781 52.027344 54.175781 C 50.914062 54.175781 50.914062 55.902344 52.027344 55.902344 Z M 52.027344 55.902344 "/>
<path style=" stroke:none;fill-rule:nonzero;fill:rgb(22.349548%,34.118652%,60.389709%);fill-opacity:1;" d="M 50.464844 50.335938 C 51.65625 50.335938 51.65625 48.488281 50.464844 48.488281 C 49.273438 48.488281 49.273438 50.335938 50.464844 50.335938 Z M 50.464844 50.335938 "/>
<path style=" stroke:none;fill-rule:nonzero;fill:rgb(22.349548%,34.118652%,60.389709%);fill-opacity:1;" d="M 61.394531 55.691406 C 62.640625 55.691406 62.640625 53.761719 61.394531 53.761719 C 60.148438 53.761719 60.148438 55.691406 61.394531 55.691406 Z M 61.394531 55.691406 "/>
<path style=" stroke:none;fill-rule:nonzero;fill:rgb(22.349548%,34.118652%,60.389709%);fill-opacity:1;" d="M 60.640625 64.59375 C 60.667969 64.511719 60.695312 64.433594 60.722656 64.351562 C 60.921875 63.777344 60.402344 63.183594 59.832031 63.183594 C 59.265625 63.183594 58.742188 63.777344 58.945312 64.351562 C 58.972656 64.433594 59 64.511719 59.03125 64.59375 C 59.308594 65.386719 60.363281 65.386719 60.640625 64.59375 Z M 60.640625 64.59375 "/>
<path style=" stroke:none;fill-rule:nonzero;fill:rgb(22.349548%,34.118652%,60.389709%);fill-opacity:1;" d="M 57.648438 69.394531 C 57.210938 69.394531 57.210938 70.070312 57.648438 70.070312 C 58.082031 70.070312 58.082031 69.394531 57.648438 69.394531 Z M 57.648438 69.394531 "/>
<path style=" stroke:none;fill-rule:nonzero;fill:rgb(22.349548%,34.118652%,60.389709%);fill-opacity:1;" d="M 62.019531 61.285156 C 62.8125 61.285156 62.8125 60.050781 62.019531 60.050781 C 61.226562 60.050781 61.226562 61.285156 62.019531 61.285156 Z M 62.019531 61.285156 "/>
<path style=" stroke:none;fill-rule:nonzero;fill:rgb(22.349548%,34.118652%,60.389709%);fill-opacity:1;" d="M 54.210938 64.503906 C 53.117188 64.503906 53.117188 66.207031 54.210938 66.207031 C 55.308594 66.207031 55.308594 64.503906 54.210938 64.503906 Z M 54.210938 64.503906 "/>
<path style=" stroke:none;fill-rule:nonzero;fill:rgb(22.349548%,34.118652%,60.389709%);fill-opacity:1;" d="M 46.40625 70.347656 C 47.199219 70.347656 47.199219 69.117188 46.40625 69.117188 C 45.613281 69.117188 45.613281 70.347656 46.40625 70.347656 Z M 46.40625 70.347656 "/>
<path style=" stroke:none;fill-rule:nonzero;fill:rgb(22.349548%,34.118652%,60.389709%);fill-opacity:1;" d="M 28.917969 54.925781 C 29.578125 54.925781 29.578125 53.898438 28.917969 53.898438 C 28.257812 53.898438 28.257812 54.925781 28.917969 54.925781 Z M 28.917969 54.925781 "/>
<path style=" stroke:none;fill-rule:nonzero;fill:rgb(22.349548%,34.118652%,60.389709%);fill-opacity:1;" d="M 29.230469 50.503906 C 28.625 50.503906 28.625 51.441406 29.230469 51.441406 C 29.835938 51.441406 29.835938 50.503906 29.230469 50.503906 Z M 29.230469 50.503906 "/>
<path style=" stroke:none;fill-rule:nonzero;fill:rgb(22.349548%,34.118652%,60.389709%);fill-opacity:1;" d="M 33.078125 81.363281 C 31.832031 81.363281 31.832031 83.296875 33.078125 83.296875 C 34.328125 83.296875 34.328125 81.363281 33.078125 81.363281 Z M 33.078125 81.363281 "/>
<path style=" stroke:none;fill-rule:nonzero;fill:rgb(22.349548%,34.118652%,60.389709%);fill-opacity:1;" d="M 32.324219 92.195312 C 32.351562 92.117188 32.378906 92.039062 32.40625 91.957031 C 32.609375 91.382812 32.085938 90.785156 31.515625 90.785156 C 30.949219 90.785156 30.429688 91.382812 30.628906 91.957031 C 30.65625 92.039062 30.6875 92.117188 30.714844 92.195312 C 30.992188 92.992188 32.046875 92.992188 32.324219 92.195312 Z M 32.324219 92.195312 "/>
<path style=" stroke:none;fill-rule:nonzero;fill:rgb(22.349548%,34.118652%,60.389709%);fill-opacity:1;" d="M 29.332031 97.675781 C 29.765625 97.675781 29.765625 97 29.332031 97 C 28.898438 97 28.898438 97.675781 29.332031 97.675781 Z M 29.332031 97.675781 "/>
<path style=" stroke:none;fill-rule:nonzero;fill:rgb(22.349548%,34.118652%,60.389709%);fill-opacity:1;" d="M 33.703125 87.652344 C 32.910156 87.652344 32.910156 88.886719 33.703125 88.886719 C 34.496094 88.886719 34.496094 87.652344 33.703125 87.652344 Z M 33.703125 87.652344 "/>
<path style=" stroke:none;fill-rule:nonzero;fill:rgb(22.349548%,34.118652%,60.389709%);fill-opacity:1;" d="M 42.363281 95.507812 C 42.496094 95.539062 42.628906 95.566406 42.765625 95.597656 C 43.511719 95.765625 44.265625 95.253906 44.265625 94.453125 C 44.265625 93.652344 43.511719 93.140625 42.765625 93.308594 C 42.628906 93.339844 42.496094 93.371094 42.363281 93.402344 C 41.316406 93.636719 41.316406 95.269531 42.363281 95.507812 Z M 42.363281 95.507812 "/>
<path style=" stroke:none;fill-rule:nonzero;fill:rgb(22.349548%,34.118652%,60.389709%);fill-opacity:1;" d="M 36.929688 92.765625 C 38.285156 92.765625 38.285156 90.65625 36.929688 90.65625 C 35.570312 90.65625 35.570312 92.765625 36.929688 92.765625 Z M 36.929688 92.765625 "/>
<path style=" stroke:none;fill-rule:nonzero;fill:rgb(22.349548%,34.118652%,60.389709%);fill-opacity:1;" d="M 35.585938 86.78125 C 35.734375 86.78125 35.761719 86.601562 35.667969 86.527344 C 35.605469 86.578125 35.53125 86.613281 35.441406 86.636719 C 35.441406 86.710938 35.488281 86.78125 35.585938 86.78125 Z M 35.585938 86.78125 "/>
<path style=" stroke:none;fill-rule:nonzero;fill:rgb(22.349548%,34.118652%,60.389709%);fill-opacity:1;" d="M 41.160156 85.550781 C 41.324219 85.550781 41.464844 85.585938 41.585938 85.648438 C 41.726562 85.199219 41.5 84.625 40.890625 84.625 C 40.128906 84.625 39.96875 85.539062 40.390625 85.949219 C 40.542969 85.71875 40.796875 85.550781 41.160156 85.550781 Z M 41.160156 85.550781 "/>
<path style=" stroke:none;fill-rule:nonzero;fill:rgb(22.349548%,34.118652%,60.389709%);fill-opacity:1;" d="M 58.976562 82.558594 C 61.375 82.558594 61.375 78.835938 58.976562 78.835938 C 56.578125 78.835938 56.578125 82.558594 58.976562 82.558594 Z M 58.976562 82.558594 "/>
<path style=" stroke:none;fill-rule:nonzero;fill:rgb(22.349548%,34.118652%,60.389709%);fill-opacity:1;" d="M 48.699219 84.800781 C 47.941406 84.800781 47.941406 85.972656 48.699219 85.972656 C 49.453125 85.972656 49.453125 84.800781 48.699219 84.800781 Z M 48.699219 84.800781 "/>
<path style=" stroke:none;fill-rule:nonzero;fill:rgb(22.349548%,34.118652%,60.389709%);fill-opacity:1;" d="M 53.070312 78.195312 C 51.863281 78.195312 51.863281 80.070312 53.070312 80.070312 C 54.28125 80.070312 54.28125 78.195312 53.070312 78.195312 Z M 53.070312 78.195312 "/>
<path style=" stroke:none;fill-rule:nonzero;fill:rgb(22.349548%,34.118652%,60.389709%);fill-opacity:1;" d="M 47.140625 78.523438 C 48.367188 78.523438 48.367188 76.617188 47.140625 76.617188 C 45.914062 76.617188 45.914062 78.523438 47.140625 78.523438 Z M 47.140625 78.523438 "/>
<path style=" stroke:none;fill-rule:nonzero;fill:rgb(22.349548%,34.118652%,60.389709%);fill-opacity:1;" d="M 44.804688 82.0625 C 45.519531 82.0625 45.519531 80.949219 44.804688 80.949219 C 44.085938 80.949219 44.085938 82.0625 44.804688 82.0625 Z M 44.804688 82.0625 "/>
<path style=" stroke:none;fill-rule:nonzero;fill:rgb(22.349548%,34.118652%,60.389709%);fill-opacity:1;" d="M 57.757812 87.324219 C 58.644531 87.324219 58.644531 85.949219 57.757812 85.949219 C 56.867188 85.949219 56.867188 87.324219 57.757812 87.324219 Z M 57.757812 87.324219 "/>
<path style=" stroke:none;fill-rule:nonzero;fill:rgb(22.349548%,34.118652%,60.389709%);fill-opacity:1;" d="M 53.695312 91.933594 C 52.867188 91.933594 52.867188 93.222656 53.695312 93.222656 C 54.527344 93.222656 54.527344 91.933594 53.695312 91.933594 Z M 53.695312 91.933594 "/>
<path style=" stroke:none;fill-rule:nonzero;fill:rgb(22.349548%,34.118652%,60.389709%);fill-opacity:1;" d="M 48.058594 90.179688 C 47.136719 90.179688 47.136719 91.617188 48.058594 91.617188 C 48.984375 91.617188 48.984375 90.179688 48.058594 90.179688 Z M 48.058594 90.179688 "/>
<path style=" stroke:none;fill-rule:nonzero;fill:rgb(22.349548%,34.118652%,60.389709%);fill-opacity:1;" d="M 49.011719 93.75 C 48.105469 93.75 48.105469 95.15625 49.011719 95.15625 C 49.917969 95.15625 49.917969 93.75 49.011719 93.75 Z M 49.011719 93.75 "/>
<path style=" stroke:none;fill-rule:nonzero;fill:rgb(22.349548%,34.118652%,60.389709%);fill-opacity:1;" d="M 41.660156 90.515625 C 42.226562 90.515625 42.226562 89.636719 41.660156 89.636719 C 41.09375 89.636719 41.09375 90.515625 41.660156 90.515625 Z M 41.660156 90.515625 "/>
<path style=" stroke:none;fill-rule:nonzero;fill:rgb(22.349548%,34.118652%,60.389709%);fill-opacity:1;" d="M 60.878906 90.261719 C 61.519531 90.261719 61.519531 89.265625 60.878906 89.265625 C 60.238281 89.265625 60.238281 90.261719 60.878906 90.261719 Z M 60.878906 90.261719 "/>
<path style=" stroke:none;fill-rule:nonzero;fill:rgb(22.349548%,34.118652%,60.389709%);fill-opacity:1;" d="M 66.1875 86.640625 C 67 86.640625 67 85.382812 66.1875 85.382812 C 65.375 85.382812 65.375 86.640625 66.1875 86.640625 Z M 66.1875 86.640625 "/>
<path style=" stroke:none;fill-rule:nonzero;fill:rgb(22.349548%,34.118652%,60.389709%);fill-opacity:1;" d="M 64 81.875 C 65.117188 81.875 65.117188 80.144531 64 80.144531 C 62.886719 80.144531 62.886719 81.875 64 81.875 Z M 64 81.875 "/>
<path style=" stroke:none;fill-rule:nonzero;fill:rgb(22.349548%,34.118652%,60.389709%);fill-opacity:1;" d="M 62.441406 76.304688 C 63.628906 76.304688 63.628906 74.457031 62.441406 74.457031 C 61.25 74.457031 61.25 76.304688 62.441406 76.304688 Z M 62.441406 76.304688 "/>
<path style=" stroke:none;fill-rule:nonzero;fill:rgb(22.349548%,34.118652%,60.389709%);fill-opacity:1;" d="M 73.371094 81.664062 C 74.617188 81.664062 74.617188 79.730469 73.371094 79.730469 C 72.125 79.730469 72.125 81.664062 73.371094 81.664062 Z M 73.371094 81.664062 "/>
<path style=" stroke:none;fill-rule:nonzero;fill:rgb(22.349548%,34.118652%,60.389709%);fill-opacity:1;" d="M 72.617188 90.5625 C 72.644531 90.480469 72.667969 90.402344 72.699219 90.320312 C 72.898438 89.75 72.378906 89.152344 71.808594 89.152344 C 71.242188 89.152344 70.71875 89.75 70.921875 90.320312 C 70.949219 90.402344 70.976562 90.480469 71.003906 90.5625 C 71.28125 91.355469 72.335938 91.355469 72.617188 90.5625 Z M 72.617188 90.5625 "/>
<path style=" stroke:none;fill-rule:nonzero;fill:rgb(22.349548%,34.118652%,60.389709%);fill-opacity:1;" d="M 69.625 95.367188 C 69.1875 95.367188 69.1875 96.039062 69.625 96.039062 C 70.058594 96.039062 70.058594 95.367188 69.625 95.367188 Z M 69.625 95.367188 "/>
<path style=" stroke:none;fill-rule:nonzero;fill:rgb(22.349548%,34.118652%,60.389709%);fill-opacity:1;" d="M 73.996094 87.25 C 74.789062 87.25 74.789062 86.019531 73.996094 86.019531 C 73.203125 86.019531 73.203125 87.25 73.996094 87.25 Z M 73.996094 87.25 "/>
<path style=" stroke:none;fill-rule:nonzero;fill:rgb(22.349548%,34.118652%,60.389709%);fill-opacity:1;" d="M 66.1875 92.175781 C 67.285156 92.175781 67.285156 90.476562 66.1875 90.476562 C 65.09375 90.476562 65.09375 92.175781 66.1875 92.175781 Z M 66.1875 92.175781 "/>
<path style=" stroke:none;fill-rule:nonzero;fill:rgb(22.349548%,34.118652%,60.389709%);fill-opacity:1;" d="M 58.382812 96.320312 C 59.171875 96.320312 59.171875 95.089844 58.382812 95.089844 C 57.589844 95.089844 57.589844 96.320312 58.382812 96.320312 Z M 58.382812 96.320312 "/>
<path style=" stroke:none;fill-rule:nonzero;fill:rgb(22.349548%,34.118652%,60.389709%);fill-opacity:1;" d="M 33.082031 96.457031 C 34.328125 96.457031 34.328125 94.523438 33.082031 94.523438 C 31.835938 94.523438 31.835938 96.457031 33.082031 96.457031 Z M 33.082031 96.457031 "/>
<path style=" stroke:none;fill-rule:nonzero;fill:rgb(22.349548%,34.118652%,60.389709%);fill-opacity:1;" d="M 28.515625 86.949219 C 28.648438 87.035156 28.808594 87.085938 29.007812 87.085938 C 30.214844 87.085938 30.214844 85.210938 29.007812 85.210938 C 28.695312 85.210938 28.464844 85.339844 28.3125 85.527344 C 28.550781 85.949219 28.617188 86.46875 28.515625 86.949219 Z M 28.515625 86.949219 "/>
<path style=" stroke:none;fill-rule:nonzero;fill:rgb(22.349548%,34.118652%,60.389709%);fill-opacity:1;" d="M 28.746094 79.183594 C 27.859375 79.183594 27.859375 80.558594 28.746094 80.558594 C 29.632812 80.558594 29.632812 79.183594 28.746094 79.183594 Z M 28.746094 79.183594 "/>
<path style=" stroke:none;fill-rule:nonzero;fill:rgb(22.349548%,34.118652%,60.389709%);fill-opacity:1;" d="M 35.441406 86.636719 C 35.53125 86.613281 35.605469 86.578125 35.667969 86.527344 C 36.078125 86.191406 35.953125 85.351562 35.273438 85.351562 C 34.421875 85.351562 34.421875 86.671875 35.273438 86.671875 C 35.335938 86.671875 35.386719 86.652344 35.441406 86.636719 Z M 35.441406 86.636719 "/>
<path style=" stroke:none;fill-rule:nonzero;fill:rgb(22.349548%,34.118652%,60.389709%);fill-opacity:1;" d="M 40.890625 80.898438 C 41.554688 80.898438 41.554688 79.871094 40.890625 79.871094 C 40.230469 79.871094 40.230469 80.898438 40.890625 80.898438 Z M 40.890625 80.898438 "/>
<path style=" stroke:none;fill-rule:nonzero;fill:rgb(22.349548%,34.118652%,60.389709%);fill-opacity:1;" d="M 41.203125 76.476562 C 40.601562 76.476562 40.601562 77.414062 41.203125 77.414062 C 41.8125 77.414062 41.8125 76.476562 41.203125 76.476562 Z M 41.203125 76.476562 "/>
<path style=" stroke:none;fill-rule:nonzero;fill:rgb(22.349548%,34.118652%,60.389709%);fill-opacity:1;" d="M 28.515625 86.949219 C 28.617188 86.46875 28.550781 85.949219 28.3125 85.527344 C 28.035156 85.023438 27.519531 84.65625 26.765625 84.65625 C 26.761719 84.65625 26.757812 84.65625 26.753906 84.65625 C 26.757812 85.902344 26.769531 87.140625 26.777344 88.378906 C 27.78125 88.371094 28.355469 87.710938 28.515625 86.949219 Z M 28.515625 86.949219 "/>
<path style=" stroke:none;fill-rule:nonzero;fill:rgb(22.349548%,34.118652%,60.389709%);fill-opacity:1;" d="M 28.667969 96.085938 C 29.3125 96.085938 29.3125 95.085938 28.667969 95.085938 C 28.027344 95.085938 28.027344 96.085938 28.667969 96.085938 Z M 28.667969 96.085938 "/>
<path style=" stroke:none;fill-rule:nonzero;fill:rgb(22.349548%,34.118652%,60.389709%);fill-opacity:1;" d="M 33.976562 91.207031 C 33.164062 91.207031 33.164062 92.464844 33.976562 92.464844 C 34.789062 92.464844 34.789062 91.207031 33.976562 91.207031 Z M 33.976562 91.207031 "/>
<path style=" stroke:none;fill-rule:nonzero;fill:rgb(22.349548%,34.118652%,60.389709%);fill-opacity:1;" d="M 31.792969 87.695312 C 32.90625 87.695312 32.90625 85.964844 31.792969 85.964844 C 30.679688 85.964844 30.679688 87.695312 31.792969 87.695312 Z M 31.792969 87.695312 "/>
<path style=" stroke:none;fill-rule:nonzero;fill:rgb(22.349548%,34.118652%,60.389709%);fill-opacity:1;" d="M 30.230469 80.28125 C 29.039062 80.28125 29.039062 82.128906 30.230469 82.128906 C 31.417969 82.125 31.417969 80.28125 30.230469 80.28125 Z M 30.230469 80.28125 "/>
<path style=" stroke:none;fill-rule:nonzero;fill:rgb(22.349548%,34.118652%,60.389709%);fill-opacity:1;" d="M 41.160156 87.484375 C 42.242188 87.484375 42.382812 86.027344 41.585938 85.648438 C 41.464844 85.585938 41.324219 85.550781 41.160156 85.550781 C 40.796875 85.550781 40.542969 85.71875 40.390625 85.949219 C 40.023438 86.515625 40.277344 87.484375 41.160156 87.484375 Z M 41.160156 87.484375 "/>
<path style=" stroke:none;fill-rule:nonzero;fill:rgb(22.349548%,34.118652%,60.389709%);fill-opacity:1;" d="M 40.40625 96.382812 C 40.433594 96.304688 40.460938 96.222656 40.488281 96.144531 C 40.691406 95.570312 40.167969 94.976562 39.597656 94.976562 C 39.03125 94.976562 38.507812 95.570312 38.710938 96.144531 C 38.738281 96.222656 38.765625 96.304688 38.792969 96.382812 C 39.070312 97.179688 40.125 97.179688 40.40625 96.382812 Z M 40.40625 96.382812 "/>
<path style=" stroke:none;fill-rule:nonzero;fill:rgb(22.349548%,34.118652%,60.389709%);fill-opacity:1;" d="M 37.410156 101.191406 C 36.976562 101.191406 36.976562 101.863281 37.410156 101.863281 C 37.847656 101.863281 37.847656 101.191406 37.410156 101.191406 Z M 37.410156 101.191406 "/>
<path style=" stroke:none;fill-rule:nonzero;fill:rgb(22.349548%,34.118652%,60.389709%);fill-opacity:1;" d="M 41.785156 91.84375 C 40.992188 91.84375 40.992188 93.074219 41.785156 93.074219 C 42.578125 93.074219 42.578125 91.84375 41.785156 91.84375 Z M 41.785156 91.84375 "/>
<path style=" stroke:none;fill-rule:nonzero;fill:rgb(22.349548%,34.118652%,60.389709%);fill-opacity:1;" d="M 33.976562 96.300781 C 32.882812 96.300781 32.882812 98 33.976562 98 C 35.074219 98 35.074219 96.300781 33.976562 96.300781 Z M 33.976562 96.300781 "/>
<path style=" stroke:none;fill-rule:nonzero;fill:rgb(22.349548%,34.118652%,60.389709%);fill-opacity:1;" d="M 35.691406 139.171875 C 35.558594 139.203125 35.425781 139.230469 35.289062 139.261719 C 34.246094 139.5 34.246094 141.132812 35.289062 141.371094 C 35.425781 141.398438 35.558594 141.429688 35.691406 141.460938 C 36.441406 141.628906 37.195312 141.113281 37.195312 140.316406 C 37.195312 139.519531 36.441406 139.003906 35.691406 139.171875 Z M 35.691406 139.171875 "/>
<path style=" stroke:none;fill-rule:nonzero;fill:rgb(22.349548%,34.118652%,60.389709%);fill-opacity:1;" d="M 29.859375 136.515625 C 29.414062 136.515625 29.117188 136.746094 28.960938 137.050781 C 29.015625 137.492188 29.070312 137.921875 29.128906 138.332031 C 29.296875 138.507812 29.539062 138.628906 29.859375 138.628906 C 31.214844 138.628906 31.214844 136.515625 29.859375 136.515625 Z M 29.859375 136.515625 "/>
<path style=" stroke:none;fill-rule:nonzero;fill:rgb(22.349548%,34.118652%,60.389709%);fill-opacity:1;" d="M 28.597656 132.390625 C 28.566406 132.414062 28.519531 132.425781 28.480469 132.445312 C 28.488281 132.511719 28.492188 132.574219 28.496094 132.636719 C 28.503906 132.640625 28.507812 132.644531 28.515625 132.644531 C 28.664062 132.644531 28.691406 132.460938 28.597656 132.390625 Z M 28.597656 132.390625 "/>
<path style=" stroke:none;fill-rule:nonzero;fill:rgb(22.349548%,34.118652%,60.389709%);fill-opacity:1;" d="M 33.824219 130.484375 C 32.839844 130.484375 32.839844 132.011719 33.824219 132.011719 C 34.804688 132.011719 34.804688 130.484375 33.824219 130.484375 Z M 33.824219 130.484375 "/>
<path style=" stroke:none;fill-rule:nonzero;fill:rgb(22.349548%,34.118652%,60.389709%);fill-opacity:1;" d="M 51.90625 124.699219 C 49.507812 124.699219 49.507812 128.421875 51.90625 128.421875 C 54.304688 128.421875 54.304688 124.699219 51.90625 124.699219 Z M 51.90625 124.699219 "/>
<path style=" stroke:none;fill-rule:nonzero;fill:rgb(22.349548%,34.118652%,60.389709%);fill-opacity:1;" d="M 41.628906 131.835938 C 42.386719 131.835938 42.386719 130.660156 41.628906 130.660156 C 40.875 130.660156 40.875 131.835938 41.628906 131.835938 Z M 41.628906 131.835938 "/>
<path style=" stroke:none;fill-rule:nonzero;fill:rgb(22.349548%,34.118652%,60.389709%);fill-opacity:1;" d="M 46.003906 124.058594 C 44.792969 124.058594 44.792969 125.933594 46.003906 125.933594 C 47.210938 125.933594 47.210938 124.058594 46.003906 124.058594 Z M 46.003906 124.058594 "/>
<path style=" stroke:none;fill-rule:nonzero;fill:rgb(22.349548%,34.118652%,60.389709%);fill-opacity:1;" d="M 40.066406 122.476562 C 38.839844 122.476562 38.839844 124.382812 40.066406 124.382812 C 41.292969 124.382812 41.292969 122.476562 40.066406 122.476562 Z M 40.066406 122.476562 "/>
<path style=" stroke:none;fill-rule:nonzero;fill:rgb(22.349548%,34.118652%,60.389709%);fill-opacity:1;" d="M 37.730469 126.808594 C 37.015625 126.808594 37.015625 127.921875 37.730469 127.921875 C 38.449219 127.921875 38.449219 126.808594 37.730469 126.808594 Z M 37.730469 126.808594 "/>
<path style=" stroke:none;fill-rule:nonzero;fill:rgb(22.349548%,34.118652%,60.389709%);fill-opacity:1;" d="M 50.6875 133.1875 C 51.574219 133.1875 51.574219 131.8125 50.6875 131.8125 C 49.796875 131.8125 49.796875 133.1875 50.6875 133.1875 Z M 50.6875 133.1875 "/>
<path style=" stroke:none;fill-rule:nonzero;fill:rgb(22.349548%,34.118652%,60.389709%);fill-opacity:1;" d="M 46.625 137.796875 C 45.796875 137.796875 45.796875 139.082031 46.625 139.082031 C 47.457031 139.082031 47.457031 137.796875 46.625 137.796875 Z M 46.625 137.796875 "/>
<path style=" stroke:none;fill-rule:nonzero;fill:rgb(22.349548%,34.118652%,60.389709%);fill-opacity:1;" d="M 40.988281 136.042969 C 40.066406 136.042969 40.066406 137.480469 40.988281 137.480469 C 41.914062 137.480469 41.914062 136.042969 40.988281 136.042969 Z M 40.988281 136.042969 "/>
<path style=" stroke:none;fill-rule:nonzero;fill:rgb(22.349548%,34.118652%,60.389709%);fill-opacity:1;" d="M 41.941406 139.613281 C 41.035156 139.613281 41.035156 141.019531 41.941406 141.019531 C 42.847656 141.019531 42.847656 139.613281 41.941406 139.613281 Z M 41.941406 139.613281 "/>
<path style=" stroke:none;fill-rule:nonzero;fill:rgb(22.349548%,34.118652%,60.389709%);fill-opacity:1;" d="M 34.589844 135.5 C 34.019531 135.5 34.019531 136.378906 34.589844 136.378906 C 35.15625 136.378906 35.15625 135.5 34.589844 135.5 Z M 34.589844 135.5 "/>
<path style=" stroke:none;fill-rule:nonzero;fill:rgb(22.349548%,34.118652%,60.389709%);fill-opacity:1;" d="M 53.808594 135.128906 C 53.167969 135.128906 53.167969 136.125 53.808594 136.125 C 54.449219 136.125 54.449219 135.128906 53.808594 135.128906 Z M 53.808594 135.128906 "/>
<path style=" stroke:none;fill-rule:nonzero;fill:rgb(22.349548%,34.118652%,60.389709%);fill-opacity:1;" d="M 59.117188 132.503906 C 59.929688 132.503906 59.929688 131.246094 59.117188 131.246094 C 58.304688 131.246094 58.304688 132.503906 59.117188 132.503906 Z M 59.117188 132.503906 "/>
<path style=" stroke:none;fill-rule:nonzero;fill:rgb(22.349548%,34.118652%,60.389709%);fill-opacity:1;" d="M 56.933594 126.007812 C 55.816406 126.007812 55.816406 127.734375 56.933594 127.734375 C 58.046875 127.734375 58.046875 126.007812 56.933594 126.007812 Z M 56.933594 126.007812 "/>
<path style=" stroke:none;fill-rule:nonzero;fill:rgb(22.349548%,34.118652%,60.389709%);fill-opacity:1;" d="M 55.371094 120.320312 C 54.179688 120.320312 54.179688 122.167969 55.371094 122.167969 C 56.558594 122.167969 56.558594 120.320312 55.371094 120.320312 Z M 55.371094 120.320312 "/>
<path style=" stroke:none;fill-rule:nonzero;fill:rgb(22.349548%,34.118652%,60.389709%);fill-opacity:1;" d="M 66.300781 127.527344 C 67.546875 127.527344 67.546875 125.589844 66.300781 125.589844 C 65.054688 125.589844 65.054688 127.527344 66.300781 127.527344 Z M 66.300781 127.527344 "/>
<path style=" stroke:none;fill-rule:nonzero;fill:rgb(22.349548%,34.118652%,60.389709%);fill-opacity:1;" d="M 65.542969 136.425781 C 65.570312 136.34375 65.601562 136.265625 65.628906 136.183594 C 65.828125 135.609375 65.308594 135.015625 64.738281 135.015625 C 64.171875 135.015625 63.648438 135.609375 63.851562 136.183594 C 63.878906 136.265625 63.90625 136.34375 63.933594 136.425781 C 64.210938 137.21875 65.265625 137.21875 65.542969 136.425781 Z M 65.542969 136.425781 "/>
<path style=" stroke:none;fill-rule:nonzero;fill:rgb(22.349548%,34.118652%,60.389709%);fill-opacity:1;" d="M 62.554688 141.90625 C 62.988281 141.90625 62.988281 141.230469 62.554688 141.230469 C 62.117188 141.230469 62.117188 141.90625 62.554688 141.90625 Z M 62.554688 141.90625 "/>
<path style=" stroke:none;fill-rule:nonzero;fill:rgb(22.349548%,34.118652%,60.389709%);fill-opacity:1;" d="M 66.925781 133.113281 C 67.71875 133.113281 67.71875 131.882812 66.925781 131.882812 C 66.132812 131.882812 66.132812 133.113281 66.925781 133.113281 Z M 66.925781 133.113281 "/>
<path style=" stroke:none;fill-rule:nonzero;fill:rgb(22.349548%,34.118652%,60.389709%);fill-opacity:1;" d="M 59.117188 136.339844 C 58.023438 136.339844 58.023438 138.039062 59.117188 138.039062 C 60.210938 138.039062 60.210938 136.339844 59.117188 136.339844 Z M 59.117188 136.339844 "/>
<path style=" stroke:none;fill-rule:nonzero;fill:rgb(22.349548%,34.118652%,60.389709%);fill-opacity:1;" d="M 51.308594 140.949219 C 50.519531 140.949219 50.519531 142.183594 51.308594 142.183594 C 52.101562 142.183594 52.101562 140.949219 51.308594 140.949219 Z M 51.308594 140.949219 "/>
<path style=" stroke:none;fill-rule:nonzero;fill:rgb(22.349548%,34.118652%,60.389709%);fill-opacity:1;" d="M 28.375 131.242188 C 28.410156 131.652344 28.445312 132.050781 28.480469 132.445312 C 28.519531 132.425781 28.566406 132.414062 28.597656 132.390625 C 28.96875 132.082031 28.898438 131.375 28.375 131.242188 Z M 28.375 131.242188 "/>
<path style=" stroke:none;fill-rule:nonzero;fill:rgb(22.349548%,34.118652%,60.389709%);fill-opacity:1;" d="M 33.824219 126.761719 C 34.484375 126.761719 34.484375 125.734375 33.824219 125.734375 C 33.160156 125.734375 33.160156 126.761719 33.824219 126.761719 Z M 33.824219 126.761719 "/>
<path style=" stroke:none;fill-rule:nonzero;fill:rgb(22.349548%,34.118652%,60.389709%);fill-opacity:1;" d="M 34.132812 122.339844 C 33.527344 122.339844 33.527344 123.273438 34.132812 123.273438 C 34.742188 123.273438 34.742188 122.339844 34.132812 122.339844 Z M 34.132812 122.339844 "/>
<path style=" stroke:none;fill-rule:nonzero;fill:rgb(14.118958%,19.60907%,39.608765%);fill-opacity:1;" d="M 93.632812 56.433594 C 89.472656 56.433594 87.367188 55.421875 85.328125 54.441406 C 83.375 53.503906 81.53125 52.617188 77.75 52.617188 C 73.972656 52.617188 72.128906 53.503906 70.175781 54.441406 C 68.140625 55.421875 66.035156 56.433594 61.871094 56.433594 C 57.710938 56.433594 55.605469 55.421875 53.570312 54.445312 C 51.617188 53.503906 49.773438 52.617188 45.992188 52.617188 C 45.53125 52.617188 45.15625 52.242188 45.15625 51.78125 C 45.15625 51.316406 45.53125 50.941406 45.992188 50.941406 C 50.15625 50.941406 52.261719 51.953125 54.296875 52.929688 C 56.25 53.871094 58.09375 54.753906 61.871094 54.753906 C 65.652344 54.753906 67.496094 53.867188 69.449219 52.929688 C 71.488281 51.953125 73.59375 50.941406 77.75 50.941406 C 81.914062 50.941406 84.019531 51.953125 86.054688 52.929688 C 88.007812 53.871094 89.855469 54.753906 93.632812 54.753906 C 97.414062 54.753906 99.257812 53.867188 101.210938 52.929688 C 103.25 51.953125 105.355469 50.941406 109.515625 50.941406 C 109.976562 50.941406 110.351562 51.316406 110.351562 51.78125 C 110.351562 52.242188 109.976562 52.617188 109.515625 52.617188 C 105.734375 52.617188 103.890625 53.503906 101.9375 54.445312 C 99.902344 55.421875 97.792969 56.433594 93.632812 56.433594 Z M 93.632812 56.433594 "/>
<path style=" stroke:none;fill-rule:nonzero;fill:rgb(14.118958%,19.60907%,39.608765%);fill-opacity:1;" d="M 93.632812 70.121094 C 89.472656 70.121094 87.367188 69.109375 85.328125 68.128906 C 83.375 67.191406 81.53125 66.304688 77.75 66.304688 C 73.972656 66.304688 72.128906 67.191406 70.175781 68.128906 C 68.140625 69.109375 66.035156 70.121094 61.871094 70.121094 C 57.710938 70.121094 55.605469 69.109375 53.570312 68.128906 C 51.617188 67.191406 49.773438 66.304688 45.992188 66.304688 C 45.53125 66.304688 45.15625 65.929688 45.15625 65.464844 C 45.15625 65 45.53125 64.625 45.992188 64.625 C 50.15625 64.625 52.261719 65.636719 54.296875 66.617188 C 56.25 67.554688 58.09375 68.441406 61.871094 68.441406 C 65.652344 68.441406 67.496094 67.554688 69.449219 66.617188 C 71.488281 65.636719 73.59375 64.625 77.75 64.625 C 81.914062 64.625 84.019531 65.636719 86.054688 66.617188 C 88.007812 67.554688 89.855469 68.441406 93.632812 68.441406 C 97.414062 68.441406 99.257812 67.554688 101.210938 66.617188 C 103.25 65.636719 105.355469 64.625 109.515625 64.625 C 109.976562 64.625 110.351562 65 110.351562 65.464844 C 110.351562 65.929688 109.976562 66.304688 109.515625 66.304688 C 105.734375 66.304688 103.890625 67.191406 101.9375 68.128906 C 99.902344 69.109375 97.792969 70.121094 93.632812 70.121094 Z M 93.632812 70.121094 "/>
<path style=" stroke:none;fill-rule:nonzero;fill:rgb(14.118958%,19.60907%,39.608765%);fill-opacity:1;" d="M 93.632812 83.808594 C 89.472656 83.808594 87.367188 82.796875 85.328125 81.816406 C 83.375 80.878906 81.53125 79.992188 77.75 79.992188 C 73.972656 79.992188 72.128906 80.878906 70.175781 81.816406 C 68.140625 82.796875 66.035156 83.808594 61.871094 83.808594 C 57.710938 83.808594 55.605469 82.796875 53.570312 81.816406 C 51.617188 80.878906 49.773438 79.992188 45.992188 79.992188 C 45.53125 79.992188 45.15625 79.613281 45.15625 79.152344 C 45.15625 78.6875 45.53125 78.3125 45.992188 78.3125 C 50.15625 78.3125 52.261719 79.324219 54.296875 80.304688 C 56.25 81.242188 58.09375 82.128906 61.871094 82.128906 C 65.652344 82.128906 67.496094 81.242188 69.449219 80.304688 C 71.488281 79.324219 73.59375 78.3125 77.75 78.3125 C 81.914062 78.3125 84.019531 79.324219 86.054688 80.304688 C 88.007812 81.242188 89.855469 82.128906 93.632812 82.128906 C 97.414062 82.128906 99.257812 81.242188 101.210938 80.304688 C 103.25 79.324219 105.355469 78.3125 109.515625 78.3125 C 109.976562 78.3125 110.351562 78.6875 110.351562 79.152344 C 110.351562 79.617188 109.976562 79.992188 109.515625 79.992188 C 105.734375 79.992188 103.890625 80.878906 101.9375 81.816406 C 99.902344 82.796875 97.796875 83.808594 93.632812 83.808594 Z M 93.632812 83.808594 "/>
<path style=" stroke:none;fill-rule:nonzero;fill:rgb(14.118958%,19.60907%,39.608765%);fill-opacity:1;" d="M 61.558594 97.492188 C 61.402344 97.492188 61.246094 97.488281 61.085938 97.484375 C 58.3125 97.386719 55.859375 96.441406 53.484375 95.527344 C 51.007812 94.578125 48.671875 93.675781 46.011719 93.675781 C 46.003906 93.675781 45.996094 93.679688 45.992188 93.675781 C 45.53125 93.675781 45.15625 93.300781 45.15625 92.839844 C 45.15625 92.375 45.527344 92 45.992188 92 C 46 92 46.003906 92 46.011719 92 C 48.980469 92 51.574219 92.996094 54.085938 93.960938 C 56.433594 94.863281 58.652344 95.71875 61.144531 95.804688 C 64.019531 95.90625 66.496094 94.964844 69.113281 93.96875 C 71.449219 93.078125 73.863281 92.160156 76.597656 92.027344 C 77.050781 92.003906 77.453125 92.363281 77.476562 92.824219 C 77.496094 93.289062 77.140625 93.683594 76.679688 93.703125 C 74.207031 93.824219 72.023438 94.65625 69.707031 95.535156 C 67.179688 96.5 64.570312 97.492188 61.558594 97.492188 Z M 61.558594 97.492188 "/>
<path style=" stroke:none;fill-rule:nonzero;fill:rgb(14.118958%,19.60907%,39.608765%);fill-opacity:1;" d="M 61.285156 149.105469 C 31.742188 149.105469 30.578125 146.453125 30.105469 145.375 C 27.550781 139.042969 26.710938 106.5 26.761719 80.546875 C 26.816406 52.671875 27.875 22.472656 30.117188 17.84375 C 30.320312 17.429688 30.820312 17.253906 31.238281 17.457031 C 31.652344 17.660156 31.828125 18.160156 31.625 18.578125 C 29.839844 22.257812 28.5 48.320312 28.4375 80.550781 C 28.371094 114.003906 29.660156 139.792969 31.648438 144.722656 C 31.890625 145.265625 35.113281 148.070312 74.039062 147.289062 C 94.777344 146.875 115.523438 145.628906 116.871094 145.386719 C 117.28125 145.269531 117.71875 145.484375 117.878906 145.890625 C 118.046875 146.320312 117.835938 146.808594 117.402344 146.976562 C 116.625 147.28125 94.652344 148.539062 74.628906 148.957031 C 69.636719 149.058594 65.207031 149.105469 61.285156 149.105469 Z M 61.285156 149.105469 "/>
</g>
</svg>
