<?xml version="1.0" encoding="UTF-8"?>
<svg xmlns="http://www.w3.org/2000/svg" xmlns:xlink="http://www.w3.org/1999/xlink" width="150pt" height="149.999998pt" viewBox="0 0 150 149.999998" version="1.2">
<defs>
<clipPath id="clip1">
  <path d="M 13.875 0 L 136.125 0 L 136.125 150 L 13.875 150 Z M 13.875 0 "/>
</clipPath>
</defs>
<g id="surface1">
<g clip-path="url(#clip1)" clip-rule="nonzero">
<path style=" stroke:none;fill-rule:nonzero;fill:rgb(0%,0%,0%);fill-opacity:1;" d="M 116.078125 97.503906 L 116.078125 35.589844 L 84.371094 0.144531 L 29.367188 0.144531 C 20.785156 0.144531 13.804688 7.125 13.804688 15.707031 L 13.804688 113.332031 C 13.804688 121.914062 20.785156 128.894531 29.367188 128.894531 L 83.449219 128.894531 C 86.039062 140.890625 96.71875 149.910156 109.480469 149.910156 C 124.167969 149.910156 136.113281 137.960938 136.113281 123.277344 C 136.113281 110.871094 127.578125 100.453125 116.078125 97.503906 Z M 85.652344 8.550781 L 108.558594 34.152344 L 85.652344 34.152344 Z M 82.894531 124.246094 L 29.367188 124.246094 C 23.351562 124.246094 18.453125 119.351562 18.453125 113.335938 L 18.453125 15.707031 C 18.453125 9.6875 23.351562 4.792969 29.367188 4.792969 L 81.003906 4.792969 L 81.003906 38.800781 L 111.433594 38.800781 L 111.433594 96.738281 C 110.785156 96.695312 110.140625 96.640625 109.480469 96.640625 C 105.28125 96.640625 101.320312 97.644531 97.785156 99.382812 L 31.671875 99.382812 L 31.671875 104.03125 L 91.117188 104.03125 C 86.035156 108.886719 82.84375 115.710938 82.84375 123.277344 C 82.839844 123.605469 82.878906 123.921875 82.894531 124.246094 Z M 109.476562 145.265625 C 97.355469 145.265625 87.488281 135.402344 87.488281 123.277344 C 87.488281 111.15625 97.355469 101.292969 109.476562 101.292969 C 121.601562 101.292969 131.460938 111.15625 131.460938 123.277344 C 131.464844 135.402344 121.601562 145.265625 109.476562 145.265625 Z M 109.476562 145.265625 "/>
</g>
<path style=" stroke:none;fill-rule:nonzero;fill:rgb(0%,0%,0%);fill-opacity:1;" d="M 106.425781 126.523438 L 98.765625 119.148438 L 95.542969 122.496094 L 106.519531 133.066406 L 123.464844 115.789062 L 120.144531 112.535156 Z M 106.425781 126.523438 "/>
<path style=" stroke:none;fill-rule:nonzero;fill:rgb(0%,0%,0%);fill-opacity:1;" d="M 31.671875 77.175781 L 98.214844 77.175781 L 98.214844 81.824219 L 31.671875 81.824219 Z M 31.671875 77.175781 "/>
<path style=" stroke:none;fill-rule:nonzero;fill:rgb(0%,0%,0%);fill-opacity:1;" d="M 31.671875 54.878906 L 98.214844 54.878906 L 98.214844 59.527344 L 31.671875 59.527344 Z M 31.671875 54.878906 "/>
</g>
</svg>
